<svg width="176" height="218" viewBox="0 0 176 218" fill="none" xmlns="http://www.w3.org/2000/svg">
<path d="M66.1 134.6C66.1 128.6 67 123.2 68.8 118.4C70.8 113.6 73.2 109.3 76 105.5C79 101.7 82.1 98.3 85.3 95.3C88.7 92.1 91.8 89.1 94.6 86.3C97.6 83.5 100 80.7 101.8 77.9C103.8 75.1 104.8 72.2 104.8 69.2C104.8 64.6 102.8 61.1 98.8 58.7C95 56.3 90.3 55.1 84.7 55.1C78.3 55.1 72.3 56.9 66.7 60.5C61.1 64.1 56.7 69.1 53.5 75.5L0.0999999 48.8C7.7 34.4 19.2 22.7 34.6 13.7C50 4.7 69.7 0.199994 93.7 0.199994C109.5 0.199994 123.5 2.4 135.7 6.8C148.1 11 157.9 17.4 165.1 26C172.3 34.4 175.9 44.9 175.9 57.5C175.9 65.1 174.7 71.8 172.3 77.6C170.1 83.4 167.1 88.5 163.3 92.9C159.7 97.1 155.9 101 151.9 104.6C147.9 108.2 144 111.6 140.2 114.8C136.6 117.8 133.6 120.9 131.2 124.1C129 127.3 127.9 130.8 127.9 134.6H66.1ZM97 218C85.4 218 75.9 214.5 68.5 207.5C61.1 200.3 57.4 191.8 57.4 182C57.4 172 61.1 163.6 68.5 156.8C75.9 150 85.4 146.6 97 146.6C108.8 146.6 118.3 150 125.5 156.8C132.9 163.6 136.6 172 136.6 182C136.6 191.8 132.9 200.3 125.5 207.5C118.3 214.5 108.8 218 97 218Z" fill="#FE955D"/>
</svg>
