<svg width="68" height="69" viewBox="0 0 68 69" fill="none" xmlns="http://www.w3.org/2000/svg">
<path d="M28.8481 32.5394C28.6699 36.75 28.3018 38.7798 27.8864 39.939C27.6021 40.732 27.3304 41.0802 26.961 41.5533C26.7949 41.766 26.6091 42.004 26.3936 42.3192C25.7153 43.3108 25.1012 44.6705 24.5997 47.5654C24.1259 50.301 23.7428 54.4667 23.5234 61.0896C18.2689 60.5107 13.573 57.1794 10.1746 51.9924C6.56116 46.4772 4.4701 38.93 4.82009 30.6603C5.17009 22.3905 7.89137 15.047 11.9579 9.85683C15.7682 4.99357 20.7063 2.07462 25.9689 1.92162C24.6502 14.4496 25.4715 18.2408 26.7156 20.8877C26.9128 21.3073 27.1007 21.6653 27.2788 22.0046C27.6841 22.7768 28.0384 23.452 28.3356 24.5348C28.754 26.0594 29.025 28.3599 28.8481 32.5394Z" fill="url(#paint0_linear_170_2)" stroke="black" stroke-width="2"/>
<path d="M62.2587 28.6172C58.632 31.9464 57.1178 34.9801 57.3007 37.7976C57.5042 40.9327 59.775 43.127 61.7825 44.5597C62.2442 44.8892 62.7111 45.1919 63.1633 45.4683C62.0128 45.4669 61.1171 45.4609 60.3995 45.4347C59.4537 45.4002 58.9428 45.333 58.6358 45.2457C58.4031 45.1795 58.3447 45.1204 58.2815 45.0465C58.1457 44.8882 58.0071 44.6418 57.6856 44.0291C56.4532 41.6808 54.1116 37.3316 43.802 29.0121C48.5762 25.0477 51.5159 21.9707 53.3992 19.558C55.4528 16.9269 56.2245 15.1163 56.7364 13.915C56.7454 13.8938 56.7544 13.8728 56.7632 13.8521C57.0281 13.2309 57.1429 13.0002 57.2597 12.8548C57.3103 12.7918 57.3852 12.7036 57.7135 12.6024C58.1031 12.4823 58.7332 12.3814 59.8329 12.301C60.683 12.2388 61.7486 12.1924 63.1097 12.1447C62.5584 12.4705 61.9822 12.8314 61.4157 13.2273C59.3793 14.6507 57.0192 16.8328 56.8731 19.9095C56.741 22.6919 58.4347 25.567 62.2587 28.6172Z" fill="#FDE754" stroke="black" stroke-width="3"/>
<path d="M20.5035 20.458C20.2443 20.5079 20.0041 20.5536 19.7822 20.5945C19.9787 20.386 20.1965 20.1659 20.4337 19.9369C21.4565 18.9493 22.7828 17.8513 24.1915 16.8691C25.6074 15.8818 27.0538 15.0484 28.3179 14.5521C29.6697 14.0214 30.4607 14.016 30.799 14.1529C32.3743 14.7904 33.5627 15.7771 34.2386 16.7836C34.9202 17.7986 35.0005 18.6815 34.746 19.3102C34.4916 19.939 33.8199 20.5174 32.6241 20.7727C31.4385 21.0259 29.8984 20.9083 28.3231 20.2707C27.0799 19.7676 25.6191 19.7509 24.3247 19.8606C23.041 19.9694 21.7134 20.225 20.6067 20.4382C20.5721 20.4448 20.5377 20.4514 20.5035 20.458ZM17.9636 20.8182C17.9344 20.8155 17.9219 20.8124 17.9231 20.8116C17.9242 20.8108 17.9388 20.8121 17.9636 20.8182Z" fill="#FF0000" fill-opacity="0.5" stroke="black" stroke-width="3"/>
<path d="M51.0242 29.0398C51.0242 31.3626 48.8702 33.9611 44.2145 36.0651C39.6973 38.1066 33.3515 39.4082 26.2621 39.4082C19.1727 39.4082 12.8269 38.1066 8.30973 36.0651C3.65402 33.9611 1.5 31.3626 1.5 29.0398C1.5 26.7169 3.65402 24.1184 8.30973 22.0144C12.8269 19.973 19.1727 18.6713 26.2621 18.6713C33.3515 18.6713 39.6973 19.973 44.2145 22.0144C48.8702 24.1184 51.0242 26.7169 51.0242 29.0398Z" fill="#A0ADBA" stroke="black" stroke-width="3"/>
<path d="M14.6613 23.4843C14.6613 26.7504 12.1181 29.3074 9.09074 29.3074C6.06338 29.3074 3.52017 26.7504 3.52017 23.4843C3.52017 20.2183 6.06338 17.6613 9.09074 17.6613C12.1181 17.6613 14.6613 20.2183 14.6613 23.4843Z" fill="white" stroke="black" stroke-width="3"/>
<circle cx="6.81806" cy="22.9793" r="1.76764" fill="black"/>
<path d="M7.18681 36.9642C7.17547 36.7884 8.26686 35.136 10.0438 35.0214C11.8206 34.9069 13.2703 34.9566 13.2816 35.1324C13.293 35.3083 11.8617 35.5437 10.0848 35.6583C8.30792 35.7728 7.19814 37.1401 7.18681 36.9642Z" fill="black"/>
<path d="M24.6098 32.3335C24.1932 33.0203 23.0842 33.3823 22.0241 32.7393C21.0575 32.1529 20.8131 31.1444 21.0934 30.4504C21.2025 30.4257 21.3689 30.4014 21.6032 30.3908C22.2444 30.3617 23.1186 30.445 24.0886 30.6176C24.7484 30.735 25.4209 30.888 26.0484 31.0568C25.5483 31.3214 24.982 31.72 24.6098 32.3335ZM20.9595 30.4913C20.9594 30.4912 20.9619 30.4899 20.9674 30.4876C20.9624 30.4902 20.9597 30.4914 20.9595 30.4913Z" fill="#FF8080" stroke="black" stroke-width="3"/>
<path d="M31.1235 20.2028C31.4787 18.1432 44.7977 23.2138 45.1444 27.8251C41.575 28.5693 37.3168 23.935 28.9655 23.2556C24.0704 23.1729 18.4081 23.0585 18.5525 22.2212C18.8422 18.7372 30.8229 21.9455 31.1235 20.2028Z" fill="#FEF3EE"/>
<path d="M25.0641 39.1512C23.9164 42.1942 23.6037 43.7188 23.5815 44.6292C23.5666 45.2414 23.6622 45.533 23.8056 45.9705C23.8742 46.1799 23.9538 46.4227 24.0375 46.7502C24.2882 47.7312 24.3579 48.9499 23.8632 51.2073C23.4047 53.2989 22.4487 56.3395 20.6448 60.9951C29.627 63.6807 40.2792 57.3321 44.6227 45.8159C48.9559 34.3268 45.1774 22.5532 36.7009 18.6106C33.9481 27.7567 32.1207 30.2184 30.2595 31.7214C29.9545 31.9677 29.6857 32.1648 29.4357 32.348C28.8864 32.7506 28.4283 33.0864 27.8792 33.7304C27.1075 34.6353 26.1995 36.1409 25.0641 39.1512Z" fill="#D51910" stroke="black" stroke-width="2"/>
<defs>
<linearGradient id="paint0_linear_170_2" x1="36.4087" y1="65.8713" x2="19.9224" y2="17.1884" gradientUnits="userSpaceOnUse">
<stop stop-color="#AF1320"/>
<stop offset="1" stop-color="#E00F12"/>
</linearGradient>
</defs>
</svg>
