<svg width="308" height="149" viewBox="0 0 308 149" fill="none" xmlns="http://www.w3.org/2000/svg">
<path d="M224.605 82.8334L213.678 84.9837L230.386 99.8823L230.949 100.384L230.882 101.134L227.857 135.331L241.471 103.796L235.899 96.8545L235.897 96.8526L224.605 82.8334Z" fill="#AF1320" stroke="black" stroke-width="3"/>
<path d="M245.462 79.3967L234.03 86.3252L258.337 95.9674L259.037 96.2452L259.232 96.9727L269.812 136.373L272.143 95.4892L263.283 90.1322L263.281 90.1309L245.462 79.3967Z" fill="#AF1320" stroke="black" stroke-width="3"/>
<path d="M211.315 95.7188L200.01 92.7328L203.573 106.975L203.83 108.004L202.946 108.589L178.701 124.661L210.771 112.94L210.959 107.32L210.959 107.316L211.315 95.7188Z" fill="#D61A11" stroke="black" stroke-width="3"/>
<path d="M70.0235 78.0522L81.4555 84.9808L57.1493 94.6229L56.449 94.9007L56.2537 95.6282L45.674 135.028L43.3429 94.1447L52.2026 88.7877L52.2047 88.7864L70.0235 78.0522Z" fill="#AF1320" stroke="black" stroke-width="3"/>
<path d="M86.7682 87.9345L97.8956 88.3911L83.6584 105.666L83.1794 106.248L83.3595 106.979L91.5709 140.313L73.3019 111.226L77.7485 103.516L77.7497 103.514L86.7682 87.9345Z" fill="#AF1320" stroke="black" stroke-width="3"/>
<path d="M101.343 96.9322L111.523 92.917L107.723 111.143L107.546 111.992L108.193 112.569L131.453 133.309L101.256 119.137L101.275 111.838L101.275 111.835L101.343 96.9322Z" fill="#D61A11" stroke="black" stroke-width="3"/>
<path d="M27.4877 42.1383L27.5095 43.2733L28.6076 43.5607C36.508 45.6284 41.5828 47.724 44.7702 49.6563C47.9678 51.5948 49.1115 53.2724 49.4593 54.4457C49.7947 55.5771 49.4771 56.5413 48.9989 57.3034C48.8001 57.6203 48.5821 57.8857 48.3945 58.0875C48.2625 58.069 48.1131 58.0479 47.947 58.0243C47.2046 57.9187 46.1312 57.763 44.8101 57.5626C42.1674 57.1619 38.5367 56.5832 34.5834 55.8714C26.917 54.4911 18.2081 52.6388 13.0748 50.6527C8.60346 39.625 6.08586 32.0785 4.95509 26.9603C4.37937 24.3545 4.17953 22.4483 4.23692 21.0699C4.29446 19.6878 4.60424 18.9745 4.90822 18.5983C5.18793 18.2522 5.60312 18.0174 6.30687 17.9117C7.04595 17.8008 7.98422 17.8523 9.14568 18.0121C9.84938 18.1089 10.5423 18.2298 11.2772 18.358C11.7877 18.4471 12.3185 18.5398 12.8873 18.6303C14.2082 18.8405 15.6211 19.0175 17.0094 18.9971C17.8053 18.9853 18.5405 18.9714 19.2207 18.9586C21.9546 18.907 23.8 18.8721 25.1297 19.0609C25.9221 19.1734 26.353 19.3473 26.6103 19.5285C26.8327 19.685 27.0328 19.9213 27.2012 20.4143C27.3831 20.9469 27.5063 21.7182 27.5655 22.8684C27.6241 24.0072 27.6165 25.4178 27.5844 27.1929C27.5734 27.7988 27.5597 28.4437 27.545 29.1295C27.4744 32.4398 27.3835 36.703 27.4877 42.1383Z" fill="#D51910" stroke="black" stroke-width="3"/>
<path d="M280.839 39.8977L280.817 41.0327L279.719 41.3201C271.818 43.3878 266.744 45.4834 263.556 47.4157C260.359 49.3542 259.215 51.0318 258.867 52.2051C258.532 53.3365 258.849 54.3007 259.328 55.0628C259.526 55.3797 259.744 55.6451 259.932 55.8469C260.064 55.8284 260.213 55.8073 260.379 55.7837C261.122 55.6781 262.195 55.5224 263.516 55.322C266.159 54.9213 269.79 54.3426 273.743 53.6308C281.409 52.2505 290.118 50.3982 295.252 48.4121C299.723 37.3844 302.241 29.8379 303.371 24.7197C303.947 22.1139 304.147 20.2077 304.089 18.8293C304.032 17.4472 303.722 16.7339 303.418 16.3577C303.138 16.0116 302.723 15.7768 302.02 15.6711C301.28 15.5602 300.342 15.6117 299.181 15.7715C298.477 15.8683 297.784 15.9892 297.049 16.1174C296.539 16.2065 296.008 16.2992 295.439 16.3897C294.118 16.5999 292.705 16.7769 291.317 16.7565C290.521 16.7447 289.786 16.7308 289.106 16.718C286.372 16.6664 284.526 16.6315 283.197 16.8203C282.404 16.9328 281.973 17.1067 281.716 17.2879C281.494 17.4444 281.294 17.6807 281.125 18.1737C280.943 18.7062 280.82 19.4776 280.761 20.6277C280.702 21.7666 280.71 23.1772 280.742 24.9523C280.753 25.5582 280.767 26.2031 280.781 26.8889C280.852 30.1992 280.943 34.4624 280.839 39.8977Z" fill="#D51910" stroke="black" stroke-width="3"/>
<path d="M291.04 2.58599C287.758 2.85226 285.277 3.17574 283.404 3.55752C281.551 3.93519 280.19 4.38945 279.22 4.97386C278.19 5.595 277.567 6.38864 277.312 7.35593C277.111 8.11556 277.179 8.89802 277.224 9.40899C277.228 9.45929 277.232 9.50696 277.236 9.55172C277.239 9.59648 277.243 9.64419 277.247 9.69454C277.285 10.206 277.345 10.9892 277.665 11.7066C278.072 12.6201 278.815 13.3028 279.932 13.7498C280.983 14.1703 282.4 14.3992 284.289 14.4732C286.199 14.5481 288.7 14.4673 291.982 14.201C295.264 13.9347 297.758 13.6102 299.65 13.2272C301.524 12.8479 302.904 12.393 303.893 11.8146C304.934 11.2059 305.589 10.4288 305.879 9.46619C306.122 8.65803 306.054 7.84032 306.01 7.30332C306.007 7.27394 306.005 7.2454 306.003 7.21775C306.001 7.19009 305.998 7.16154 305.996 7.13215C305.953 6.595 305.888 5.77705 305.518 5.01866C305.077 4.1153 304.305 3.45409 303.179 3.02113C302.11 2.60976 300.675 2.3833 298.765 2.31098C296.836 2.23795 294.322 2.31969 291.04 2.58599Z" fill="#D51910" stroke="black" stroke-width="3"/>
<path d="M16.6016 4.9638C19.8834 5.23007 22.3648 5.55355 24.2378 5.93532C26.0907 6.313 27.4517 6.76726 28.421 7.35167C29.4512 7.97281 30.0748 8.76645 30.3297 9.73374C30.5299 10.4934 30.462 11.2758 30.4176 11.7868C30.4133 11.8371 30.4091 11.8848 30.4055 11.9295C30.4019 11.9743 30.3983 12.022 30.3945 12.0723C30.3559 12.5838 30.2968 13.367 29.9767 14.0844C29.5692 14.9979 28.8259 15.6807 27.709 16.1276C26.6582 16.5481 25.2417 16.777 23.3521 16.851C21.4421 16.9259 18.941 16.8451 15.6592 16.5789C12.377 16.3126 9.88304 15.988 7.99107 15.605C6.11744 15.2257 4.73768 14.7708 3.74869 14.1925C2.70779 13.5837 2.05201 12.8066 1.76234 11.844C1.51916 11.0358 1.58701 10.2181 1.63156 9.68113C1.634 9.65175 1.63637 9.62321 1.63861 9.59555C1.64086 9.5679 1.64312 9.53935 1.64545 9.50996C1.68804 8.9728 1.75291 8.15486 2.12319 7.39646C2.56425 6.49311 3.33673 5.8319 4.46215 5.39893C5.53144 4.98757 6.96648 4.76111 8.87674 4.68878C10.8057 4.61576 13.3193 4.6975 16.6016 4.9638Z" fill="#D51910" stroke="black" stroke-width="3"/>
</svg>
