<svg width="57" height="91" viewBox="0 0 57 91" fill="none" xmlns="http://www.w3.org/2000/svg">
<path d="M11.4981 43.6709C9.22223 49.7051 8.57769 52.7873 8.53173 54.6751C8.5002 55.9704 8.71786 56.6369 9.01468 57.5459C9.14869 57.9562 9.29883 58.416 9.44946 59.0053C9.922 60.8542 10.0694 63.1878 9.10044 67.6089C8.18485 71.7862 6.25229 77.9166 2.5628 87.3986C20.7688 93.2023 42.3877 80.3669 51.1231 57.206C59.8435 34.0849 52.1271 10.2121 34.6866 2.50475C29.1515 21.0333 25.5329 25.848 21.9327 28.7555C21.3624 29.2161 20.8456 29.5952 20.3565 29.9538C19.2469 30.7677 18.2803 31.4767 17.1559 32.7952C15.577 34.6467 13.7555 37.6855 11.4981 43.6709Z" fill="#D51910" stroke="black" stroke-width="3"/>
</svg>
