<svg width="53" height="123" viewBox="0 0 53 123" fill="none" xmlns="http://www.w3.org/2000/svg">
<path d="M50.6001 63.4497C50.2469 71.7949 49.5166 75.8752 48.6681 78.2427C48.0788 79.8871 47.4856 80.6478 46.7324 81.6138C46.4077 82.0302 46.0533 82.4847 45.6566 83.0646C44.3648 84.9533 43.1671 87.5738 42.1815 93.2632C41.2367 98.7177 40.4717 107.084 40.0403 120.489C29.251 119.488 19.6408 112.736 12.7446 102.21C5.52897 91.1968 1.36769 76.1515 2.06446 59.6882C2.76123 43.2249 8.17886 28.5851 16.2993 18.2208C24.0393 8.34209 34.1519 2.43099 44.9543 2.31404C42.2635 27.5427 43.9116 35.0035 46.3325 40.1542C46.7065 40.95 47.0701 41.643 47.4191 42.3083C48.2321 43.8582 48.966 45.2572 49.5686 47.4529C50.4158 50.5398 50.9513 55.151 50.6001 63.4497Z" fill="url(#paint0_linear_4_182)" stroke="black" stroke-width="3"/>
<defs>
<linearGradient id="paint0_linear_4_182" x1="65.0908" y1="129.428" x2="32.4473" y2="33.0338" gradientUnits="userSpaceOnUse">
<stop stop-color="#AF1320"/>
<stop offset="1" stop-color="#E00F12"/>
</linearGradient>
</defs>
</svg>
