<svg width="169" height="125" viewBox="0 0 169 125" fill="none" xmlns="http://www.w3.org/2000/svg">
<path d="M54.4848 4.36853L55 4.81696V5.5C55 6.15493 55.343 7.32982 56.2056 9.03725C57.0392 10.6872 58.2632 12.6544 59.7989 14.8273C62.8676 19.1693 67.1044 24.2258 71.732 29.04C76.3613 33.8561 81.344 38.3904 85.8952 41.708C88.1714 43.3672 90.3106 44.7007 92.2212 45.6139C94.1543 46.5378 95.7391 46.9757 96.939 46.9757C102.772 46.9757 107.985 45.3733 111.698 42.8611C115.419 40.3431 117.5 37.0229 117.5 33.5479C117.5 30.0728 115.419 26.7526 111.698 24.2346C107.985 21.7224 102.772 20.1201 96.939 20.1201C95.1824 20.1201 92.9037 19.6139 90.4007 18.8504C87.8639 18.0766 84.9665 16.9967 81.9245 15.7637C76.7628 13.6717 71.1051 11.1062 65.9826 8.78331C65.0705 8.36973 64.1754 7.96385 63.3031 7.56969C60.408 6.26152 57.7675 5.08416 55.5706 4.17279C54.6986 3.81102 53.9127 3.49817 53.2196 3.23835C53.5918 3.58134 54.0125 3.95746 54.4848 4.36853Z" fill="#D9D9D9" stroke="black" stroke-width="3"/>
<path d="M18.1718 77.3022L18.7084 76.4544L18.1297 75.6348C10.8228 65.2864 6.24531 57.6047 3.77753 51.9113C1.27516 46.138 1.10463 42.7727 1.98005 40.7945C2.80954 38.9201 4.84275 37.7532 8.42787 37.126C11.9776 36.505 16.5356 36.5 21.7279 36.5C41.3368 36.5 57.5 54.253 57.5 76.5C57.5 98.747 41.3368 116.5 21.7279 116.5C16.5896 116.5 12.443 116.221 9.4216 115.302C6.46394 114.402 4.83265 112.978 4.23015 110.778C3.57952 108.403 4.0123 104.765 6.24049 99.2075C8.44779 93.7019 12.3143 86.5565 18.1718 77.3022Z" fill="#AF1320" stroke="black" stroke-width="3"/>
<path d="M50.5 76.5981C50.5 83.5768 50.5009 88.9356 50.8132 93.254C51.1251 97.5667 51.7413 100.713 52.9043 103.291C55.2021 108.384 59.8009 111.659 69.9942 117.018C89.4844 127.266 113.077 122.059 132.399 111.243C142.027 105.852 150.493 99.1206 156.719 92.3739C162.832 85.75 166.63 79.2832 167.455 74.1736C165.605 69.8889 161.28 64.2402 155.066 58.3941C148.705 52.4083 140.476 46.3215 131.198 41.4006C112.597 31.5353 90.0751 26.4974 69.9285 35.8631C59.9255 40.5132 55.259 44.7845 52.9293 50.5944C50.5253 56.5895 50.5 64.407 50.5 76.5981Z" fill="#C65656" stroke="black" stroke-width="3"/>
<path d="M121.5 60.5C121.5 72.1299 130.71 81.5 142 81.5C153.29 81.5 162.5 72.1299 162.5 60.5C162.5 48.8701 153.29 39.5 142 39.5C130.71 39.5 121.5 48.8701 121.5 60.5Z" fill="white" stroke="black" stroke-width="3"/>
<ellipse cx="5.5" cy="6" rx="5.5" ry="6" transform="matrix(-1 0 0 1 160 54)" fill="black"/>
<path d="M147.315 101.041C147.35 100.494 143.956 95.3556 138.43 94.9993C132.903 94.643 128.395 94.7976 128.36 95.3445C128.324 95.8914 132.776 96.6236 138.302 96.9799C143.828 97.3361 147.279 101.588 147.315 101.041Z" fill="black"/>
<path d="M83 71.5C76.5 71.5 85 115 98.9494 118.5C103.117 107.954 91.1645 92.4538 93.4969 66.5C95.8307 51.4538 98.4731 34.0397 95.8307 34.0397C85 33.0861 88.5 71.5 83 71.5Z" fill="#FEF3EE"/>
<path d="M55.6464 73.808C54.8248 89.3133 56.2506 95.6592 61.6757 101.035C68.2886 103.849 60.1751 89.5969 60.9967 74.0915C61.8183 58.5862 67.6235 48.5622 65.8918 48.4705C59.8514 48.1504 56.4681 58.3027 55.6464 73.808Z" fill="#FEF3EE"/>
<path d="M67.9317 74.7702C67.9317 96.8616 70.4072 105.77 78.4288 113C87.9286 116.5 75 106.091 75 84C75 61.9086 82.8785 38 80.4388 38C71.929 38 67.9317 52.6788 67.9317 74.7702Z" fill="#FEF3EE"/>
<path d="M99.4004 90.1522C101.066 94.5079 106.911 96.7946 112.819 94.5351C118.727 92.2756 121.554 86.6723 119.889 82.3166C119.823 82.1457 119.589 81.8205 118.854 81.4508C118.139 81.0909 117.123 80.7793 115.829 80.5372C113.248 80.0547 109.853 79.9008 106.25 79.9915C102.66 80.0818 98.9314 80.4129 95.7098 80.872C92.4719 81.3334 89.8545 81.9094 88.4061 82.459C88.412 82.4623 88.4179 82.4656 88.4239 82.469C88.9417 82.7578 89.5988 83.0706 90.3733 83.4291C90.5302 83.5017 90.6915 83.5759 90.8565 83.6519C92.2733 84.3043 93.9594 85.0806 95.4346 85.9951C97.0416 86.9914 98.7031 88.3289 99.4004 90.1522Z" fill="#FEF3EE" stroke="black" stroke-width="3"/>
</svg>
