<svg width="139" height="75" viewBox="0 0 139 75" fill="none" xmlns="http://www.w3.org/2000/svg">
<path d="M97.6916 23.9513C99.9528 24.3864 101.69 24.7066 102.783 24.7003C102.571 24.3163 102.223 23.807 101.714 23.1826C101.048 22.3641 100.171 21.4245 99.1289 20.4183C97.0449 18.4062 94.358 16.1829 91.508 14.1956C88.6507 12.2033 85.6822 10.4852 83.0339 9.44542C80.298 8.37124 78.2606 8.16364 77.0326 8.66063C73.6777 10.0184 71.0758 12.1451 69.5531 14.4126C68.0247 16.6887 67.6643 18.9536 68.4061 20.7865C69.1479 22.6194 70.982 23.9961 73.6633 24.5685C76.3345 25.1388 79.6831 24.8572 83.038 23.4995C85.1709 22.6363 87.7792 22.5778 90.2792 22.7897C92.742 22.9983 95.304 23.4916 97.513 23.9169C97.5728 23.9284 97.6324 23.9399 97.6916 23.9513ZM103.019 25.2415C103.02 25.2507 103.021 25.2557 103.021 25.2559C103.021 25.2561 103.021 25.2515 103.019 25.2415Z" fill="#FDEFCA" fill-opacity="0.82" stroke="black" stroke-width="3"/>
<path d="M16.914 21.4453C17.7531 26.4778 15.9469 32.2325 9.8864 38.7742C12.6257 40.7279 14.5216 42.7479 15.6842 44.8368C17.0687 47.3242 17.3632 49.822 16.9083 52.225C16.0265 56.8831 12.3398 61.0713 8.97738 64.4035C8.11884 65.2544 7.26084 66.0681 6.45197 66.8325C6.378 66.9024 6.3045 66.9718 6.23148 67.0408C5.50112 67.7307 4.81874 68.3753 4.20031 68.9837C2.78261 70.3782 1.91293 71.3868 1.59421 72.0798C1.55517 72.1647 1.53229 72.2283 1.51891 72.2737C1.56001 72.3013 1.62162 72.3375 1.71149 72.38C2.49105 72.7481 4.23738 73.0458 7.56724 73.0458C20.6802 73.0458 31.6209 70.4108 39.2452 64.8963C46.7926 59.4375 51.2649 51.0328 51.2649 39.0216C51.2649 27.0051 46.7872 18.3512 39.2219 12.6539C31.5935 6.9091 20.6563 4.04584 7.56724 4.04584C5.01844 4.04584 3.32851 4.13111 2.2709 4.2774C2.27639 4.2819 2.28191 4.28641 2.28747 4.29094C2.74968 4.66811 3.33379 5.09932 4.0293 5.60395C4.18103 5.71404 4.33739 5.82712 4.49786 5.94318C5.78623 6.87501 7.33927 7.99826 8.88601 9.29686C12.3328 12.1907 16.037 16.185 16.914 21.4453ZM1.50039 72.3641C1.50046 72.3641 1.50054 72.3627 1.50046 72.36C1.50028 72.3628 1.50032 72.3642 1.50039 72.3641ZM1.4522 72.2213C1.44827 72.2158 1.44573 72.2132 1.44542 72.2133C1.44511 72.2134 1.44709 72.2161 1.4522 72.2213ZM1.1419 4.5418C1.14204 4.54186 1.14485 4.54039 1.14987 4.53722C1.14426 4.54015 1.14175 4.54173 1.1419 4.5418ZM1.42626 3.45844C1.42392 3.45411 1.42253 3.45186 1.42242 3.45182C1.42231 3.45178 1.42348 3.45395 1.42626 3.45844Z" fill="#FDE754" stroke="black" stroke-width="3"/>
<path d="M36.0673 39.5C36.0673 45.0348 41.1021 50.5412 50.4154 54.7501C59.5903 58.8964 72.3705 61.5 86.5673 61.5C100.764 61.5 113.544 58.8964 122.719 54.7501C132.032 50.5412 137.067 45.0348 137.067 39.5C137.067 33.9652 132.032 28.4588 122.719 24.2499C113.544 20.1036 100.764 17.5 86.5673 17.5C72.3705 17.5 59.5903 20.1036 50.4154 24.2499C41.1021 28.4588 36.0673 33.9652 36.0673 39.5Z" fill="#2069B5" stroke="black" stroke-width="3"/>
<path d="M108.067 28.5C108.067 35.7298 113.713 41.5 120.567 41.5C127.422 41.5 133.067 35.7298 133.067 28.5C133.067 21.2702 127.422 15.5 120.567 15.5C113.713 15.5 108.067 21.2702 108.067 28.5Z" fill="white" stroke="black" stroke-width="3"/>
<circle cx="3.5" cy="3.5" r="3.5" transform="matrix(-1 0 0 1 128.567 24)" fill="black"/>
<path d="M124.337 55.1906C124.36 54.8424 122.199 51.5707 118.68 51.3439C115.162 51.117 112.292 51.2154 112.269 51.5636C112.247 51.9118 115.081 52.378 118.599 52.6048C122.117 52.8316 124.315 55.5388 124.337 55.1906Z" fill="black"/>
<path d="M87.7269 47.3026C89.3694 50.0104 93.1644 50.8023 96.2396 48.937C99.3148 47.0717 100.366 43.3402 98.7238 40.6324C98.5823 40.3991 98.2948 40.1803 97.8008 40.011C97.311 39.8431 96.6699 39.7423 95.9043 39.7075C94.3747 39.638 92.4414 39.8357 90.4382 40.1922C88.4396 40.5479 86.3942 41.0575 84.648 41.6004C82.8901 42.147 81.474 42.7156 80.7105 43.1787C80.4147 43.3581 80.2806 43.4846 80.2246 43.553C80.3284 43.6437 80.5382 43.7586 80.8849 43.894C81.2245 44.0267 81.642 44.1595 82.1168 44.3052C82.2136 44.335 82.3127 44.3652 82.4137 44.396C83.2866 44.6623 84.2979 44.9708 85.2091 45.3748C86.2149 45.8208 87.1927 46.4219 87.7269 47.3026Z" fill="#FEF3EE" stroke="black"/>
<path d="M76.9416 22.0023C76.2382 17.9242 49.866 27.9642 49.1796 37.0948C56.2472 38.5684 64.6786 29.3922 81.2144 28.0471C90.907 27.8832 102.119 27.6567 101.833 25.9988C101.259 19.1004 77.5367 25.4531 76.9416 22.0023Z" fill="#FEF3EE"/>
</svg>
