<svg width="123" height="89" viewBox="0 0 123 89" fill="none" xmlns="http://www.w3.org/2000/svg">
<path d="M54.6046 23.2537L55.1225 23.7023V24.3875C55.1225 25.3542 55.4497 25.9401 55.9894 26.3847C56.6035 26.8906 57.5989 27.2928 59.0434 27.5639C61.5308 28.0307 64.7566 28.0183 68.292 28.0047C68.8968 28.0024 69.5106 28 70.1314 28C74.0205 28 77.4742 26.9359 79.9125 25.2939C82.36 23.6458 83.6489 21.5294 83.6489 19.3875C83.6489 18.4023 83.9557 17.3635 84.3594 16.3809C84.7715 15.3778 85.3358 14.3134 85.9564 13.2474C86.6699 12.0216 87.5327 10.674 88.3661 9.37239C88.9368 8.48103 89.4936 7.61123 89.9794 6.81687C90.6035 5.79604 91.1418 4.85369 91.5413 4.01596C91.95 3.15907 92.1651 2.5099 92.2221 2.05672C92.2506 1.83023 92.2336 1.72037 92.2201 1.67629C92.165 1.64052 91.9028 1.5 91.1488 1.5C89.3184 1.5 85.362 2.29926 80.4998 3.75922C75.6984 5.20091 70.1981 7.23031 65.3474 9.57622C60.4439 11.9477 56.4016 14.5503 54.3226 17.0681C53.2944 18.3133 52.8746 19.3832 52.8872 20.2805C52.8992 21.1276 53.3021 22.1255 54.6046 23.2537ZM92.2084 1.65178C92.2077 1.65256 92.21 1.65903 92.2176 1.66887C92.213 1.65592 92.2092 1.651 92.2084 1.65178Z" fill="black" fill-opacity="0.83" stroke="black" stroke-width="3"/>
<path d="M110.344 42.6069C113.225 46.4015 116.33 50.3439 120.001 54.1046C117.579 56.6002 115.177 59.6325 112.697 62.7627L112.618 62.8622C109.715 66.5272 106.673 70.3613 103.239 73.8654C96.3918 80.8535 88.1252 86.3875 76.6958 86.3875C66.8448 86.3875 57.6849 81.7527 48.7631 75.8865C45.6626 73.8479 42.6366 71.693 39.6302 69.552C38.3103 68.6121 36.9943 67.6748 35.6774 66.7513C31.3912 63.7456 27.1238 60.9061 22.8691 58.7552C22.8087 58.7246 22.6519 58.6057 22.4986 58.2495C22.3492 57.9022 22.2527 57.4349 22.2463 56.9231C22.2398 56.412 22.324 55.9325 22.4674 55.5652C22.6151 55.1866 22.7781 55.0398 22.8517 54.9966C27.176 52.4592 31.4815 48.9083 35.7827 45.0777C37.5484 43.5053 39.299 41.8994 41.0554 40.2881C43.635 37.9217 46.2271 35.5438 48.8979 33.2436C57.8648 25.5208 66.9505 19.3875 76.6958 19.3875C88.1361 19.3875 95.0519 24.1555 101.19 31C103.735 33.8384 106.118 37.0019 108.641 40.3512C109.201 41.0945 109.767 41.8469 110.344 42.6069Z" fill="#15B6B6" stroke="black" stroke-width="3"/>
<path d="M9.8777 57.254L10.5257 56.3384L9.83062 55.458C6.10021 50.7328 3.80183 47.2721 2.57903 44.7489C1.31261 42.1357 1.40205 40.9406 1.65585 40.4277C1.89074 39.9529 2.57999 39.4532 4.41376 39.1663C6.17027 38.8914 8.44669 38.8875 11.1225 38.8875C20.8372 38.8875 28.7019 46.7284 28.7019 56.3875C28.7019 66.0465 20.8372 73.8875 11.1225 73.8875C8.49416 73.8875 6.44797 73.7578 4.99323 73.3619C3.56155 72.9724 3.04477 72.4295 2.85907 71.8232C2.62446 71.0572 2.72724 69.6476 3.85056 67.1416C4.94694 64.6958 6.88957 61.4763 9.8777 57.254Z" fill="#FFA800" stroke="black" stroke-width="3"/>
<circle cx="99.1226" cy="34.8875" r="13.5" fill="white" stroke="black" stroke-width="3"/>
<circle cx="96.1226" cy="34.8875" r="4" fill="black"/>
<path d="M58.3313 49.8071C56.1523 46.9196 78.3256 36.1133 84.5566 41.1367C81.2688 46.5234 70.3765 46.4098 59.629 56.1462C53.7274 62.2268 46.8774 69.2383 45.9916 68.0645C41.9373 63.5728 60.175 52.2503 58.3313 49.8071Z" fill="#F0AD2A"/>
<path d="M50.187 36.8822C56.7994 31.3195 60.0964 29.8256 64.3032 30.4333C67.77 32.4277 58.7189 33.6012 52.1064 39.1639C45.494 44.7267 42.9871 50.6658 42.3658 49.9273C40.1988 47.3513 43.5745 42.445 50.187 36.8822Z" fill="#F0AD2A"/>
<path d="M54.7326 42.0171C64.5462 34.6115 69.3335 32.7248 75.2342 33.8646C79.9735 36.9114 71.0158 34.6574 61.2022 42.0629C51.3886 49.4685 43.4088 60.9831 42.591 59.8993C39.7383 56.1191 44.919 49.4227 54.7326 42.0171Z" fill="#F0AD2A"/>
<path d="M72.1182 72.191C75.7086 76.7536 83.4151 77.2423 89.4637 72.4826C95.5122 67.7229 96.8494 60.1176 93.259 55.5549C93.0575 55.2989 92.5878 54.9893 91.5804 54.8219C90.5942 54.6581 89.2892 54.6656 87.7069 54.8509C84.5503 55.2205 80.586 56.2601 76.4829 57.6499C72.3935 59.0352 68.2305 60.7462 64.6949 62.4236C61.1292 64.1154 58.3013 65.7263 56.8171 66.8941C56.6394 67.034 56.4956 67.1564 56.3797 67.2618C56.5464 67.3086 56.7473 67.358 56.9871 67.4085C57.6953 67.5575 58.5695 67.6829 59.5833 67.8176C59.7893 67.8449 60.0005 67.8726 60.2162 67.9008C62.0733 68.1438 64.2612 68.4302 66.2569 68.9472C68.4388 69.5125 70.7344 70.4325 72.1182 72.191ZM55.7205 67.0063C55.7204 67.0063 55.7215 67.0072 55.7239 67.0089C55.7217 67.0071 55.7206 67.0063 55.7205 67.0063Z" fill="#FFA800" stroke="black" stroke-width="3"/>
</svg>
