<svg width="114" height="78" viewBox="0 0 114 78" fill="none" xmlns="http://www.w3.org/2000/svg">
<path d="M40.2228 5.07628L40.7407 5.52489V6.21011C40.7407 7.07888 41.3079 8.42365 42.644 10.0978C43.9335 11.7137 45.7703 13.4252 47.8926 14.9929C52.2022 18.1765 57.3168 20.5 60.9825 20.5C64.8716 20.5 68.3253 19.4358 70.7636 17.7939C73.2111 16.1458 74.5 14.0294 74.5 11.8874C74.5 9.74546 73.2111 7.62907 70.7636 5.98096C68.3253 4.33901 64.8716 3.27485 60.9825 3.27485C58.82 3.27485 55.599 2.88347 52.3005 2.48268L52.1875 2.46895C48.7872 2.05582 45.2523 1.62775 42.3662 1.52361C40.9207 1.47145 39.705 1.50383 38.7852 1.64058C38.3268 1.70872 37.9848 1.79679 37.7438 1.89061C37.6441 1.92941 37.5737 1.96454 37.5255 1.99228C37.546 2.05594 37.5832 2.149 37.6504 2.27483C37.9686 2.8704 38.7327 3.78566 40.2228 5.07628Z" fill="black" fill-opacity="0.76" stroke="black" stroke-width="3"/>
<path d="M102.222 31.7195C105.102 35.514 108.207 39.4565 111.878 43.2172C109.457 45.7128 107.054 48.7451 104.574 51.8752L104.496 51.9748C101.592 55.6397 98.5501 59.4738 95.1166 62.978C88.2692 69.9661 80.0026 75.5 68.5732 75.5C58.7223 75.5 49.5623 70.8652 40.6405 64.9991C37.54 62.9605 34.514 60.8055 31.5076 58.6645C30.1878 57.7246 28.8717 56.7874 27.5548 55.8639C23.2686 52.8582 19.0012 50.0186 14.7465 47.8677C14.6861 47.8372 14.5293 47.7182 14.376 47.3621C14.2266 47.0148 14.1302 46.5475 14.1237 46.0356C14.1172 45.5246 14.2014 45.0451 14.3448 44.6778C14.4926 44.2991 14.6556 44.1523 14.7291 44.1092C19.0534 41.5717 23.3589 38.0208 27.6602 34.1903C29.4258 32.6178 31.1764 31.0119 32.9328 29.4007C35.5124 27.0343 38.1045 24.6564 40.7753 22.3561C49.7423 14.6333 58.8279 8.5 68.5732 8.5C80.0135 8.5 86.9294 13.2681 93.0671 20.1125C95.6124 22.9509 97.9954 26.1144 100.518 29.4638C101.078 30.207 101.645 30.9594 102.222 31.7195Z" fill="#15B655" stroke="black" stroke-width="3"/>
<path d="M21.5 45C21.5 54.6591 13.6353 62.5 3.92055 62.5C2.66789 62.5 1.99111 62.3606 1.6562 62.217C1.57368 62.1817 1.52751 62.1525 1.50466 62.1358C1.48861 62.0271 1.49978 61.7326 1.70678 61.1135C1.9045 60.5221 2.20599 59.8391 2.57903 58.994C2.59654 58.9543 2.61422 58.9142 2.63205 58.8738C4.07469 55.6042 6.31838 50.4949 3.24546 45.0532C6.57316 39.8633 4.27851 34.6826 2.7976 31.3676C2.76953 31.3048 2.7418 31.2428 2.71442 31.1815C2.34 30.3441 2.03055 29.652 1.81958 29.0443C1.58334 28.3639 1.55906 28.0228 1.58131 27.8808C1.58207 27.876 1.58279 27.872 1.58344 27.8686C1.60119 27.8542 1.64056 27.8266 1.71547 27.7918C2.02198 27.6495 2.67278 27.5 3.92055 27.5C13.6353 27.5 21.5 35.3409 21.5 45ZM1.57131 27.8797C1.57127 27.8797 1.57177 27.8791 1.5729 27.878C1.5719 27.8792 1.57134 27.8797 1.57131 27.8797Z" fill="#FFA800" stroke="black" stroke-width="3"/>
<circle cx="91" cy="24" r="13.5" fill="white" stroke="black" stroke-width="3"/>
<circle cx="95" cy="28" r="4" fill="black"/>
<path d="M50.2087 38.9197C48.0297 36.0322 70.203 25.2258 76.434 30.2492C73.1462 35.6359 62.2539 35.5223 51.5064 45.2588C45.6048 51.3394 38.7548 58.3508 37.869 57.177C33.8147 52.6854 52.0525 41.3629 50.2087 38.9197Z" fill="#F0AD2A"/>
<path d="M42.0644 25.9947C48.6768 20.432 51.9738 18.9381 56.1806 19.5458C59.6475 21.5402 50.5963 22.7136 43.9839 28.2764C37.3714 33.8392 34.8646 39.7783 34.2433 39.0398C32.0762 36.4638 35.4519 31.5575 42.0644 25.9947Z" fill="#F0AD2A"/>
<path d="M46.6102 31.1296C56.4238 23.724 61.211 21.8373 67.1118 22.9771C71.8511 26.0239 62.8933 23.7699 53.0798 31.1755C43.2662 38.5811 35.2864 50.0957 34.4685 49.0119C31.6159 45.2316 36.7966 38.5352 46.6102 31.1296Z" fill="#F0AD2A"/>
<path d="M63.9958 61.3035C67.5862 65.8662 75.2927 66.3549 81.3412 61.5952C87.3898 56.8355 88.7269 49.2301 85.1365 44.6675C84.9351 44.4115 84.4654 44.1018 83.4579 43.9345C82.4717 43.7707 81.1668 43.7782 79.5844 43.9635C76.4279 44.3331 72.4635 45.3727 68.3605 46.7625C64.2711 48.1477 60.1081 49.8588 56.5725 51.5362C53.0067 53.2279 50.1788 54.8388 48.6947 56.0067C48.517 56.1465 48.3732 56.269 48.2572 56.3743C48.424 56.4211 48.6249 56.4705 48.8646 56.521C49.5729 56.67 50.447 56.7955 51.4609 56.9301C51.6669 56.9575 51.8781 56.9851 52.0938 57.0134C53.9508 57.2564 56.1388 57.5427 58.1344 58.0597C60.3164 58.625 62.612 59.545 63.9958 61.3035ZM47.5981 56.1189C47.598 56.1189 47.5991 56.1197 47.6014 56.1214C47.5993 56.1197 47.5981 56.1189 47.5981 56.1189Z" fill="#FFA800" stroke="black" stroke-width="3"/>
</svg>
