<svg width="161" height="109" viewBox="0 0 161 109" fill="none" xmlns="http://www.w3.org/2000/svg">
<path d="M57.9848 8.03567L58.5 8.4841V9.16714C58.5 10.7032 59.4638 12.8513 61.4517 15.3543C63.3938 17.7996 66.1408 20.3675 69.2946 22.7086C75.6677 27.4394 83.3306 30.9756 88.939 30.9756C94.7716 30.9756 99.9852 29.3733 103.698 26.861C107.419 24.343 109.5 21.0228 109.5 17.5478C109.5 14.0728 107.419 10.7525 103.698 8.23454C99.9852 5.72232 94.7716 4.11997 88.939 4.11997C85.8049 4.11997 81.1048 3.54612 76.2247 2.9503L76.103 2.93544C71.1166 2.32666 65.8918 1.69032 61.6164 1.5353C59.4763 1.45771 57.6415 1.50403 56.2283 1.71513C54.7278 1.93928 54.049 2.30283 53.8253 2.55349C53.7615 2.62499 53.7402 2.67691 53.7393 2.77643C53.7381 2.91649 53.7853 3.20935 54.0447 3.69723C54.5752 4.69514 55.7787 6.11557 57.9848 8.03567Z" fill="black" fill-opacity="0.62" stroke="black" stroke-width="3"/>
<path d="M22.6161 56.5C22.6161 67.094 17.85 74.4248 12.8337 80.0994C11.2648 81.8742 9.61041 83.5496 8.09044 85.0889C7.23282 85.9575 6.41799 86.7827 5.68542 87.558C4.36689 88.9534 3.28823 90.212 2.50409 91.4002C10.8075 90.7511 20.0893 86.97 27.542 81.1288C35.7594 74.6883 41.5 65.9541 41.5 56.5C41.5 47.0459 35.7594 38.3117 27.542 31.8712C19.9833 25.947 10.5432 22.1418 2.15044 21.574C2.15471 21.5806 2.15901 21.5872 2.16334 21.5938C2.66805 22.3668 3.42113 23.2581 4.39573 24.3018C5.16833 25.1292 6.04203 26.0127 6.99652 26.978C7.24225 27.2264 7.49334 27.4804 7.74943 27.7401C8.99067 28.9991 10.3302 30.3764 11.674 31.8724C17.0341 37.8399 22.6161 45.8608 22.6161 56.5Z" fill="#5D1D48" stroke="#000002" stroke-width="3"/>
<path d="M42.5 60.5981C42.5 67.5768 42.5009 72.9356 42.8132 77.254C43.1251 81.5667 43.7413 84.7126 44.9043 87.2907C47.2021 92.3845 51.8009 95.6592 61.9942 101.018C81.4844 111.266 105.077 106.059 124.399 95.2425C134.027 89.8525 142.493 83.1206 148.719 76.3739C154.832 69.75 158.63 63.2832 159.455 58.1736C157.605 53.8889 153.28 48.2402 147.066 42.3941C140.705 36.4083 132.476 30.3215 123.198 25.4006C104.597 15.5353 82.0751 10.4974 61.9285 19.8631C51.9255 24.5132 47.259 28.7845 44.9293 34.5944C42.5253 40.5895 42.5 48.407 42.5 60.5981Z" fill="#EF5799" stroke="black" stroke-width="3"/>
<path d="M113.5 44.5C113.5 56.1299 122.71 65.5 134 65.5C145.29 65.5 154.5 56.1299 154.5 44.5C154.5 32.8701 145.29 23.5 134 23.5C122.71 23.5 113.5 32.8701 113.5 44.5Z" fill="white" stroke="black" stroke-width="3"/>
<ellipse cx="5.5" cy="6" rx="5.5" ry="6" transform="matrix(-1 0 0 1 145 33)" fill="black"/>
<path d="M139.315 85.0413C139.35 84.4944 135.956 79.3556 130.43 78.9993C124.903 78.643 120.395 78.7976 120.36 79.3445C120.324 79.8914 124.776 80.6236 130.302 80.9799C135.828 81.3361 139.279 85.5882 139.315 85.0413Z" fill="black"/>
<path d="M75 55.5C68.5 55.5 77 99 90.9494 102.5C95.117 91.9538 83.1645 76.4538 85.4969 50.5C87.8307 35.4538 90.4731 18.0397 87.8307 18.0397C77 17.0861 80.5 55.5 75 55.5Z" fill="#FEF3EE"/>
<path d="M47.6464 57.808C46.8248 73.3133 48.2506 79.6592 53.6757 85.0353C60.2886 87.8492 52.1751 73.5969 52.9967 58.0915C53.8183 42.5862 59.6235 32.5622 57.8918 32.4705C51.8514 32.1504 48.4681 42.3027 47.6464 57.808Z" fill="#FEF3EE"/>
<path d="M59.9317 58.7702C59.9317 80.8616 62.4072 89.7702 70.4288 97C79.9286 100.5 67 90.0914 67 68C67 45.9086 74.8785 22 72.4388 22C63.929 22 59.9317 36.6788 59.9317 58.7702Z" fill="#FEF3EE"/>
<path d="M91.4004 74.1522C93.0662 78.5079 98.911 80.7946 104.819 78.5351C110.727 76.2756 113.554 70.6723 111.889 66.3166C111.823 66.1457 111.589 65.8205 110.854 65.4508C110.139 65.0909 109.123 64.7793 107.829 64.5372C105.248 64.0547 101.853 63.9008 98.2498 63.9915C94.6604 64.0818 90.9314 64.4129 87.7098 64.872C84.4719 65.3334 81.8545 65.9094 80.4061 66.459C80.412 66.4623 80.4179 66.4656 80.4239 66.469C80.9417 66.7578 81.5988 67.0706 82.3733 67.4291C82.5302 67.5017 82.6915 67.5759 82.8565 67.6519C84.2733 68.3043 85.9594 69.0806 87.4346 69.9951C89.0416 70.9914 90.7031 72.3289 91.4004 74.1522Z" fill="#FEF3EE" stroke="black" stroke-width="3"/>
</svg>
