<svg width="135" height="75" viewBox="0 0 135 75" fill="none" xmlns="http://www.w3.org/2000/svg">
<path d="M19.9683 21.4913C20.2104 26.5889 16.9169 32.2319 8.47516 38.5837C16.4821 45.5245 19.4628 51.5132 19.1231 56.7456C18.7652 62.2588 14.755 66.2551 10.8621 69.0334C8.8833 70.4457 6.84193 71.6087 5.14137 72.5439C4.8005 72.7313 4.47926 72.9067 4.17818 73.071C3.93798 73.2021 3.71061 73.3262 3.49633 73.4439C4.38836 73.4816 5.4957 73.5 6.85008 73.5C10.1813 73.5 12.6383 73.4998 14.508 73.4316C16.3959 73.3628 17.559 73.2269 18.3488 73.0022C19.0644 72.7986 19.4362 72.5335 19.7644 72.1506C20.165 71.6831 20.5199 71.0246 21.1298 69.8624C23.5181 65.3113 28.17 56.5649 49.6489 39.4608C39.4221 31.0982 33.2981 24.7201 29.4741 19.8211C25.5253 14.7621 24.0543 11.3098 23.0638 8.98526C23.0446 8.9401 23.0255 8.89537 23.0066 8.85105C22.502 7.66762 22.1996 7.00851 21.8177 6.53282C21.502 6.13952 21.0842 5.81912 20.2057 5.54837C19.2659 5.25872 17.8781 5.0508 15.6835 4.89025C13.5116 4.73137 10.6566 4.62485 6.82572 4.5C5.43835 4.50028 4.32001 4.52418 3.4343 4.57129C3.84733 4.80259 4.31248 5.05683 4.82629 5.33767C5.09385 5.48391 5.3746 5.63736 5.66805 5.79854C7.44695 6.77558 9.56292 7.9717 11.6 9.39555C15.5838 12.1801 19.7142 16.1409 19.9683 21.4913ZM1.1523 4.86773C1.15245 4.8678 1.15567 4.86644 1.16152 4.86347C1.15506 4.86618 1.15214 4.86767 1.1523 4.86773ZM1.49603 3.32603C1.48496 3.31168 1.48222 3.31067 1.49365 3.32341C1.49438 3.32423 1.49517 3.3251 1.49603 3.32603Z" fill="#FDE754" stroke="black" stroke-width="3"/>
<path d="M93.1721 23.9513C95.4333 24.3864 97.1705 24.7066 98.2637 24.7003C98.0518 24.3163 97.7032 23.807 97.1949 23.1826C96.5286 22.3641 95.6516 21.4245 94.6093 20.4183C92.5254 18.4062 89.8385 16.1829 86.9884 14.1956C84.1312 12.2033 81.1627 10.4852 78.5143 9.44542C75.7784 8.37124 73.7411 8.16364 72.513 8.66063C69.1582 10.0184 66.5563 12.1451 65.0336 14.4126C63.5052 16.6887 63.1448 18.9536 63.8865 20.7865C64.6283 22.6194 66.4625 23.9961 69.1438 24.5685C71.8149 25.1388 75.1636 24.8572 78.5184 23.4995C80.6514 22.6363 83.2597 22.5778 85.7597 22.7897C88.2225 22.9983 90.7845 23.4916 92.9934 23.9169C93.0533 23.9284 93.1128 23.9399 93.1721 23.9513ZM98.4993 25.2415C98.5002 25.2507 98.5013 25.2557 98.5016 25.2559C98.5019 25.2561 98.5015 25.2515 98.4993 25.2415Z" fill="#FF0000" fill-opacity="0.5" stroke="black" stroke-width="3"/>
<path d="M31.5477 39.5C31.5477 45.0348 36.5826 50.5412 45.8959 54.7501C55.0708 58.8964 67.851 61.5 82.0477 61.5C96.2445 61.5 109.025 58.8964 118.2 54.7501C127.513 50.5412 132.548 45.0348 132.548 39.5C132.548 33.9652 127.513 28.4588 118.2 24.2499C109.025 20.1036 96.2445 17.5 82.0477 17.5C67.851 17.5 55.0708 20.1036 45.8959 24.2499C36.5826 28.4588 31.5477 33.9652 31.5477 39.5Z" fill="#9968BF" stroke="black" stroke-width="3"/>
<path d="M103.548 28.5C103.548 35.7298 109.193 41.5 116.048 41.5C122.902 41.5 128.548 35.7298 128.548 28.5C128.548 21.2702 122.902 15.5 116.048 15.5C109.193 15.5 103.548 21.2702 103.548 28.5Z" fill="white" stroke="black" stroke-width="3"/>
<circle cx="3.5" cy="3.5" r="3.5" transform="matrix(-1 0 0 1 124.048 24)" fill="black"/>
<path d="M119.818 55.1906C119.84 54.8424 117.679 51.5707 114.161 51.3439C110.642 51.117 107.772 51.2154 107.75 51.5636C107.727 51.9118 110.561 52.378 114.079 52.6048C117.598 52.8316 119.795 55.5388 119.818 55.1906Z" fill="black"/>
<path d="M84.0624 46.784C85.3739 48.9461 88.5215 49.7075 91.2015 48.082C93.8778 46.4587 94.6586 43.3219 93.3547 41.16C93.3432 41.1481 93.2538 41.0587 92.9571 40.957C92.5911 40.8316 92.0542 40.7389 91.3394 40.7065C89.9149 40.6418 88.0636 40.8262 86.0939 41.1767C84.1381 41.5248 82.1332 42.0243 80.4254 42.5553C79.4995 42.8432 78.6934 43.1304 78.043 43.3959C78.0902 43.4103 78.138 43.4249 78.1864 43.4396C79.0522 43.7035 80.1242 44.0302 81.0949 44.4607C82.1474 44.9274 83.3637 45.6321 84.0624 46.784Z" fill="#FF8080" stroke="black" stroke-width="3"/>
<path d="M72.4221 22.0023C71.7187 17.9242 45.3465 27.9642 44.66 37.0948C51.7277 38.5684 60.1591 29.3922 76.6949 28.0471C86.3875 27.8832 97.599 27.6567 97.3131 25.9988C96.7394 19.1004 73.0172 25.4531 72.4221 22.0023Z" fill="#FEF3EE"/>
</svg>
