<svg version="1.2" xmlns="http://www.w3.org/2000/svg" viewBox="0 0 44 36" width="44" height="36">
	<title>heart-svg</title>
	<defs>
		<filter x="-50%" y="-50%" width="200%" height="200%" id="f1"> <feGaussianBlur stdDeviation="44"/> </filter>
		<linearGradient id="g1" x1="42.1" y1="3.2" x2="12.8" y2="30.1" gradientUnits="userSpaceOnUse">
			<stop offset="0" stop-color="#f26dff"/>
			<stop offset="1" stop-color="#ff027a"/>
		</linearGradient>
		<linearGradient id="g2" x1="42" y1="3.2" x2="12.8" y2="30.1" gradientUnits="userSpaceOnUse">
			<stop offset="0" stop-color="#f26dff"/>
			<stop offset="1" stop-color="#ff027a"/>
		</linearGradient>
		<linearGradient id="g3" x1="21.4" y1="36.5" x2="29.4" y2="1.3" gradientUnits="userSpaceOnUse">
			<stop offset="0" stop-color="#ffffff" stop-opacity=".2"/>
			<stop offset="1" stop-color="#ffffff" stop-opacity=".49"/>
		</linearGradient>
		<linearGradient id="g4" x1="-1.7" y1="13" x2="33.4" y2="6.1" gradientUnits="userSpaceOnUse">
			<stop offset="0" stop-color="#ffffff" stop-opacity="1"/>
			<stop offset="1" stop-color="#ffffff" stop-opacity="0"/>
		</linearGradient>
	</defs>
	<style>
		.s0 { filter: url(#f1);fill: url(#g1) } 
		.s1 { fill: url(#g2) } 
		.s2 { fill: url(#g3) } 
		.s3 { fill: none;stroke: url(#g4);stroke-width: 2 } 
	</style>
	<g id="Layer">
		<path id="Layer" class="s0" d="m40.4 3.5c4.7 4.7 4.7 12.3 0 17l-13.5 13.6c-2.7 2.7-7.1 2.7-9.9 0l-12.1-12.1 18.5-18.5c4.7-4.7 12.3-4.7 17 0z"/>
	</g>
	<path id="Layer" class="s1" d="m40.4 3.5c4.7 4.7 4.7 12.3 0 17l-13.5 13.6c-2.7 2.7-7.1 2.7-9.9 0l-12.1-12.1 18.5-18.5c4.7-4.7 12.3-4.7 17 0z"/>
	<g id="Layer">
		<path id="Layer" class="s2" d="m3.5 3.5c4.7-4.7 12.3-4.7 17 0l18.5 18.5-12.1 12.1c-2.7 2.7-7.1 2.7-9.9 0l-13.5-13.6c-4.7-4.7-4.7-12.3 0-17z"/>
		<path id="Layer" class="s3" d="m4.2 4.2c4.3-4.3 11.3-4.3 15.6 0l17.8 17.8-11.4 11.4c-2.3 2.3-6.1 2.3-8.5 0l-13.5-13.6c-4.3-4.3-4.3-11.3 0-15.6z"/>
	</g>
</svg>