<svg width="836" height="922" viewBox="0 0 836 922" fill="none" xmlns="http://www.w3.org/2000/svg">
<path d="M361.968 60.8037C311.243 60.8037 270.081 101.45 269.249 151.973C260.726 148.022 251.371 145.735 241.392 145.735C205.116 145.735 175.699 175.155 175.699 211.435C175.699 247.715 205.116 277.134 241.392 277.134C272.368 277.134 298.146 255.72 305.214 226.924C320.91 239.191 340.659 246.468 362.072 246.468C413.317 246.468 454.895 204.886 454.895 153.636C454.895 102.386 413.317 60.8037 362.072 60.8037H361.968Z" fill="#B30258"/>
<path d="M174.447 38.0476C174.447 17.0487 191.494 0 212.491 0C233.488 0 250.535 17.0487 250.535 38.0476C250.535 59.0466 233.488 76.0953 212.491 76.0953C191.494 76.0953 174.447 59.0466 174.447 38.0476Z" fill="#C13777"/>
<path d="M150.878 423.452C164.579 448.946 155.019 480.759 129.526 494.457C104.033 508.155 72.2181 498.593 58.5173 473.098C44.8165 447.604 54.376 415.791 79.8693 402.093C105.363 388.395 137.177 397.957 150.878 423.452Z" fill="#B3075A"/>
<path d="M108.79 374.495C102.123 362.091 106.786 346.615 119.144 339.999C131.503 333.383 147.024 337.997 153.641 350.357C160.258 362.716 155.646 378.237 143.287 384.852C130.928 391.468 115.407 386.854 108.79 374.495Z" fill="#C13777"/>
<path d="M114.757 578.06C105.638 569.89 104.818 555.846 113.031 546.677C121.244 537.509 135.244 536.741 144.414 544.955C153.583 553.169 154.353 567.169 146.139 576.337C137.926 585.505 123.926 586.274 114.757 578.06Z" fill="#C13777"/>
<path d="M640.874 317.758C612.931 294.048 609.481 252.128 633.191 224.189C656.902 196.25 698.824 192.803 726.767 216.513C754.71 240.224 758.16 282.143 734.45 310.082C710.739 338.021 668.817 341.469 640.874 317.758Z" fill="#B4075B"/>
<path d="M713.13 355.99C726.726 367.526 728.391 387.924 716.885 401.439C705.378 414.954 684.95 416.696 671.433 405.19C657.916 393.684 656.172 373.257 667.678 359.742C679.185 346.226 699.613 344.484 713.13 355.99Z" fill="#C13777"/>
<path d="M611.921 118.819C626.45 124.229 633.913 140.403 628.474 155.009C623.035 169.615 606.89 176.998 592.282 171.558C577.675 166.118 570.291 149.974 575.73 135.368C581.169 120.762 597.314 113.379 611.921 118.819Z" fill="#C13777"/>
<path d="M401.304 662.302C368.602 623.526 310.993 618.266 271.836 650.202C269.361 641.14 265.078 632.514 258.644 624.886C235.257 597.155 193.803 593.635 166.069 617.025C138.335 640.415 134.811 681.868 158.199 709.599C178.169 733.278 211.158 739.178 237.727 726.016C238.469 745.923 245.639 765.711 259.444 782.08C292.482 821.253 351.074 826.228 390.251 793.187C429.428 760.146 434.409 701.555 401.371 662.382L401.304 662.302Z" fill="#B4065A"/>
<path d="M297.804 504.284C313.857 490.746 337.879 492.786 351.416 508.837C364.953 524.887 362.911 548.91 346.858 562.448C330.806 575.986 306.783 573.946 293.246 557.896C279.71 541.845 281.752 517.822 297.804 504.284Z" fill="#C13777"/>
<path d="M556.93 704.064C564.611 651.328 613.63 614.744 666.361 622.427C719.092 630.11 755.675 679.135 747.995 731.871C740.314 784.607 691.295 821.191 638.564 813.508C585.832 805.824 549.25 756.8 556.93 704.064Z" fill="#B30157"/>
<path d="M565.524 822.631C561.788 848.289 537.924 866.073 512.388 862.311C486.852 858.55 468.948 834.708 472.709 809.17C476.469 783.631 500.308 765.727 525.844 769.489C551.381 773.251 569.284 797.092 565.524 822.631Z" fill="#C13777"/>
<path d="M779.862 514.938C784.397 537.022 770.213 558.697 748.011 563.256C725.81 567.816 704.256 553.605 699.696 531.401C695.136 509.197 709.345 487.642 731.547 483.082C753.748 478.523 775.302 492.734 779.862 514.938Z" fill="#C13777"/>
<g filter="url(#filter0_bd_202_288)">
<path d="M187 456.5C187 451.448 187 448.922 187.037 446.786C189.339 313.685 296.685 206.339 429.786 204.037C431.922 204 434.448 204 439.5 204C444.552 204 447.078 204 449.214 204.037C582.315 206.339 689.66 313.685 691.963 446.786C692 448.922 692 451.448 692 456.5C692 461.552 692 464.078 691.963 466.214C689.66 599.315 582.315 706.66 449.214 708.963C447.078 709 444.552 709 439.5 709C434.448 709 431.922 709 429.786 708.963C296.685 706.66 189.339 599.315 187.037 466.214C187 464.078 187 461.552 187 456.5Z" fill="url(#paint0_radial_202_288)" fill-opacity="0.7" shape-rendering="crispEdges"/>
<path d="M195.235 456.5C195.235 451.414 195.236 448.975 195.271 446.928C197.497 318.264 301.264 214.497 429.928 212.271C431.975 212.236 434.414 212.235 439.5 212.235C444.586 212.235 447.025 212.236 449.072 212.271C577.736 214.497 681.503 318.264 683.729 446.928C683.764 448.975 683.765 451.414 683.765 456.5C683.765 461.586 683.764 464.025 683.729 466.072C681.503 594.736 577.736 698.503 449.072 700.729C447.025 700.764 444.586 700.765 439.5 700.765C434.414 700.765 431.975 700.764 429.928 700.729C301.264 698.503 197.497 594.736 195.271 466.072C195.236 464.025 195.235 461.586 195.235 456.5Z" stroke="white" stroke-width="16.4706" shape-rendering="crispEdges"/>
</g>
<g filter="url(#filter1_d_202_288)">
<g filter="url(#filter2_d_202_288)">
<circle cx="440.552" cy="457.552" r="163.073" fill="url(#paint1_linear_202_288)"/>
<circle cx="440.552" cy="457.552" r="156.896" stroke="white" stroke-opacity="0.3" stroke-width="12.3529"/>
</g>
</g>
<g style="mix-blend-mode:luminosity">
<path d="M308.621 490.465V424.757H340.242C346.373 424.757 351.658 425.759 356.1 427.761C360.604 429.764 364.076 432.642 366.515 436.397C368.955 440.089 370.175 444.47 370.175 449.539C370.175 454.608 368.955 458.988 366.515 462.68C364.076 466.372 360.604 469.251 356.1 471.316C351.658 473.319 346.373 474.32 340.242 474.32H320.913L330.765 464.839V490.465H308.621ZM330.765 467.28L320.913 457.236H338.835C341.9 457.236 344.152 456.547 345.591 455.171C347.092 453.794 347.843 451.917 347.843 449.539C347.843 447.161 347.092 445.283 345.591 443.907C344.152 442.53 341.9 441.841 338.835 441.841H320.913L330.765 431.797V467.28Z" fill="white"/>
<path d="M377.437 490.465V424.757H399.581V473.287H429.232V490.465H377.437Z" fill="white"/>
<path d="M429.134 490.465L457.847 424.757H479.616L508.328 490.465H485.433L464.227 435.271H472.86L451.654 490.465H429.134ZM446.211 479.013L451.841 463.056H482.055L487.685 479.013H446.211Z" fill="white"/>
<path d="M524.537 490.465V461.648L529.604 474.883L499.765 424.757H523.129L543.303 459.019H529.698L550.059 424.757H571.453L541.802 474.883L546.681 461.648V490.465H524.537Z" fill="white"/>
</g>
<defs>
<filter id="filter0_bd_202_288" x="-138.294" y="-121.294" width="1155.59" height="1155.59" filterUnits="userSpaceOnUse" color-interpolation-filters="sRGB">
<feFlood flood-opacity="0" result="BackgroundImageFix"/>
<feGaussianBlur in="BackgroundImageFix" stdDeviation="162.647"/>
<feComposite in2="SourceAlpha" operator="in" result="effect1_backgroundBlur_202_288"/>
<feColorMatrix in="SourceAlpha" type="matrix" values="0 0 0 0 0 0 0 0 0 0 0 0 0 0 0 0 0 0 127 0" result="hardAlpha"/>
<feOffset dy="49.4118"/>
<feGaussianBlur stdDeviation="39.1176"/>
<feComposite in2="hardAlpha" operator="out"/>
<feColorMatrix type="matrix" values="0 0 0 0 0.0867708 0 0 0 0 0.115317 0 0 0 0 0.141667 0 0 0 0.08 0"/>
<feBlend mode="normal" in2="effect1_backgroundBlur_202_288" result="effect2_dropShadow_202_288"/>
<feBlend mode="normal" in="SourceGraphic" in2="effect2_dropShadow_202_288" result="shape"/>
</filter>
<filter id="filter1_d_202_288" x="232.185" y="294.479" width="416.734" height="462.028" filterUnits="userSpaceOnUse" color-interpolation-filters="sRGB">
<feFlood flood-opacity="0" result="BackgroundImageFix"/>
<feColorMatrix in="SourceAlpha" type="matrix" values="0 0 0 0 0 0 0 0 0 0 0 0 0 0 0 0 0 0 127 0" result="hardAlpha"/>
<feOffset dy="90.5882"/>
<feGaussianBlur stdDeviation="22.6471"/>
<feComposite in2="hardAlpha" operator="out"/>
<feColorMatrix type="matrix" values="0 0 0 0 0.776471 0 0 0 0 0.290196 0 0 0 0 0.509804 0 0 0 0.15 0"/>
<feBlend mode="normal" in2="BackgroundImageFix" result="effect1_dropShadow_202_288"/>
<feBlend mode="normal" in="SourceGraphic" in2="effect1_dropShadow_202_288" result="shape"/>
</filter>
<filter id="filter2_d_202_288" x="269.244" y="286.244" width="342.616" height="342.616" filterUnits="userSpaceOnUse" color-interpolation-filters="sRGB">
<feFlood flood-opacity="0" result="BackgroundImageFix"/>
<feColorMatrix in="SourceAlpha" type="matrix" values="0 0 0 0 0 0 0 0 0 0 0 0 0 0 0 0 0 0 127 0" result="hardAlpha"/>
<feOffset/>
<feGaussianBlur stdDeviation="4.11765"/>
<feColorMatrix type="matrix" values="0 0 0 0 0.721569 0 0 0 0 0.0705882 0 0 0 0 0.380392 0 0 0 0.15 0"/>
<feBlend mode="normal" in2="BackgroundImageFix" result="effect1_dropShadow_202_288"/>
<feBlend mode="normal" in="SourceGraphic" in2="effect1_dropShadow_202_288" result="shape"/>
</filter>
<radialGradient id="paint0_radial_202_288" cx="0" cy="0" r="1" gradientUnits="userSpaceOnUse" gradientTransform="translate(439.5 456.5) rotate(90) scale(252.5)">
<stop stop-color="white"/>
<stop offset="1" stop-color="white"/>
</radialGradient>
<linearGradient id="paint1_linear_202_288" x1="487.479" y1="620.625" x2="384.617" y2="330.537" gradientUnits="userSpaceOnUse">
<stop stop-color="#C64A82"/>
<stop offset="1" stop-color="#B20056"/>
</linearGradient>
</defs>
</svg>
