<svg width="773" height="785" viewBox="0 0 773 785" fill="none" xmlns="http://www.w3.org/2000/svg">
<path d="M219.227 67.9479C168.423 67.9479 127.197 107.721 126.364 157.158C117.827 153.293 108.457 151.055 98.4631 151.055C62.1297 151.055 32.6674 179.842 32.6674 215.344C32.6674 250.845 62.1297 279.632 98.4631 279.632C129.487 279.632 155.306 258.677 162.385 230.5C178.105 242.503 197.885 249.624 219.331 249.624C270.656 249.624 312.299 208.935 312.299 158.786C312.299 108.637 270.656 67.9479 219.331 67.9479H219.227Z" fill="#B4065A"/>
<path d="M32.6674 44.4274C32.6674 21.3497 51.9892 2.61328 75.7881 2.61328C99.587 2.61328 118.909 21.3497 118.909 44.4274C118.909 67.5051 99.587 86.2414 75.7881 86.2414C51.9892 86.2414 32.6674 67.5051 32.6674 44.4274Z" fill="#C13777"/>
<path d="M548.639 579.546C564.712 537.546 613.799 515.776 658.216 530.974C702.633 546.172 725.656 592.588 709.583 634.588C693.511 676.588 644.424 698.358 600.006 683.16C555.589 667.962 532.566 621.546 548.639 579.546Z" fill="#B30358"/>
<path d="M535.297 678.534C527.741 698.809 504.654 709.303 483.876 701.967C463.097 694.631 452.183 672.217 459.739 652.043C467.295 631.87 490.382 621.274 511.16 628.61C531.939 635.946 542.853 658.36 535.297 678.534Z" fill="#C13777"/>
<path d="M772.932 459.17C772.932 477.454 757.606 492.36 738.578 492.36C719.549 492.36 704.224 477.554 704.224 459.17C704.224 440.787 719.549 425.981 738.578 425.981C757.606 425.981 772.932 440.787 772.932 459.17Z" fill="#C13777"/>
<path d="M588.557 244.142C544.246 236.47 513.418 192.503 519.765 145.989C526.112 99.4745 567.217 67.9324 611.528 75.604C655.839 83.2756 686.667 127.243 680.32 173.757C673.972 220.272 632.868 251.814 588.557 244.142Z" fill="#B40559"/>
<path d="M688.259 238.144C709.611 241.648 724.36 262.278 721.169 284.081C717.978 305.884 698.089 320.916 676.837 317.392C655.585 313.869 640.736 293.258 643.927 271.455C647.118 249.652 667.007 234.621 688.259 238.144Z" fill="#C13777"/>
<path d="M427.187 47.2731C445.128 43.7472 462.709 55.9106 466.378 74.5818C470.048 93.253 458.475 111.146 440.437 114.691C422.398 118.236 404.915 106.054 401.245 87.3826C397.576 68.7114 409.149 50.8183 427.187 47.2731Z" fill="#C13777"/>
<path d="M262.195 590.483C231.554 554.582 178.566 549.451 143.108 578.697C140.693 570.331 136.624 562.36 130.596 555.297C108.682 529.622 70.558 526.174 45.4562 547.598C20.3545 569.022 17.7695 607.215 39.6833 632.89C58.3947 654.814 88.7831 660.413 112.976 648.411C113.97 666.764 120.865 685.039 133.8 700.194C164.756 736.464 218.642 741.336 254.101 711.072C289.559 680.808 293.214 626.826 262.258 590.557L262.195 590.483Z" fill="#B30358"/>
<path d="M111.522 410.41C121.147 389.436 146.523 380.466 168.153 390.392C189.783 400.318 199.529 425.405 189.904 446.38C180.279 467.355 154.903 476.325 133.273 466.399C111.643 456.473 101.896 431.385 111.522 410.41Z" fill="#C13777"/>
<path d="M293.899 438.535V378.366H322.855C328.468 378.366 333.308 379.283 337.375 381.117C341.5 382.951 344.679 385.587 346.913 389.025C349.147 392.406 350.264 396.417 350.264 401.058C350.264 405.7 349.147 409.711 346.913 413.092C344.679 416.473 341.5 419.109 337.375 421C333.308 422.834 328.468 423.75 322.855 423.75H305.155L314.177 415.069V438.535H293.899ZM314.177 417.304L305.155 408.107H321.566C324.373 408.107 326.435 407.476 327.752 406.216C329.127 404.955 329.814 403.236 329.814 401.058C329.814 398.881 329.127 397.162 327.752 395.901C326.435 394.64 324.373 394.01 321.566 394.01H305.155L314.177 384.813V417.304Z" fill="white"/>
<path d="M356.914 438.535V378.366H377.191V422.805H404.342V438.535H356.914Z" fill="white"/>
<path d="M404.252 438.535L430.544 378.366H450.478L476.77 438.535H455.805L436.387 387.993H444.292L424.873 438.535H404.252ZM419.89 428.048L425.045 413.436H452.712L457.867 428.048H419.89Z" fill="white"/>
<path d="M491.612 438.535V412.147L496.252 424.266L468.929 378.366H490.323L508.796 409.74H496.338L514.983 378.366H534.573L507.421 424.266L511.889 412.147V438.535H491.612Z" fill="white"/>
<g filter="url(#filter0_bd_202_289)">
<path d="M149 402.5C149 395.591 149 392.137 149.069 389.215C152.189 257.348 258.348 151.189 390.215 148.069C393.137 148 396.591 148 403.5 148C410.409 148 413.863 148 416.785 148.069C548.652 151.189 654.811 257.348 657.931 389.215C658 392.137 658 395.591 658 402.5C658 409.409 658 412.863 657.931 415.785C654.811 547.652 548.652 653.811 416.785 656.931C413.863 657 410.409 657 403.5 657C396.591 657 393.137 657 390.215 656.931C258.348 653.811 152.189 547.652 149.069 415.785C149 412.863 149 409.409 149 402.5Z" fill="url(#paint0_radial_202_289)" fill-opacity="0.7" shape-rendering="crispEdges"/>
<path d="M157.235 402.5C157.235 395.544 157.236 392.209 157.302 389.41C160.318 261.938 262.938 159.318 390.41 156.302C393.209 156.236 396.544 156.235 403.5 156.235C410.456 156.235 413.791 156.236 416.59 156.302C544.062 159.318 646.682 261.938 649.698 389.41C649.764 392.209 649.765 395.544 649.765 402.5C649.765 409.456 649.764 412.791 649.698 415.59C646.682 543.062 544.062 645.682 416.59 648.698C413.791 648.764 410.456 648.765 403.5 648.765C396.544 648.765 393.209 648.764 390.41 648.698C262.938 645.682 160.318 543.062 157.302 415.59C157.236 412.791 157.235 409.456 157.235 402.5Z" stroke="white" stroke-width="16.4706" shape-rendering="crispEdges"/>
</g>
<g filter="url(#filter1_d_202_289)">
<circle cx="404.56" cy="403.56" r="164.365" fill="url(#paint1_linear_202_289)"/>
<circle cx="404.56" cy="403.56" r="158.188" stroke="white" stroke-opacity="0.3" stroke-width="12.3529"/>
</g>
<path d="M271.584 436.734V370.506H303.456C309.635 370.506 314.963 371.515 319.439 373.533C323.979 375.552 327.478 378.453 329.937 382.238C332.396 385.959 333.625 390.374 333.625 395.483C333.625 400.592 332.396 405.007 329.937 408.729C327.478 412.45 323.979 415.352 319.439 417.433C314.963 419.452 309.635 420.461 303.456 420.461H283.974L293.904 410.905V436.734H271.584ZM293.904 413.365L283.974 403.241H302.037C305.127 403.241 307.397 402.548 308.847 401.16C310.36 399.772 311.117 397.88 311.117 395.483C311.117 393.086 310.36 391.194 308.847 389.806C307.397 388.419 305.127 387.725 302.037 387.725H283.974L293.904 377.602V413.365Z" fill="white"/>
<path d="M340.945 436.734V370.506H363.265V419.42H393.151V436.734H340.945Z" fill="white"/>
<path d="M393.052 436.734L421.992 370.506H443.933L472.873 436.734H449.797L428.423 381.102H437.124L415.75 436.734H393.052ZM410.265 425.191L415.939 409.107H446.392L452.067 425.191H410.265Z" fill="white"/>
<path d="M489.21 436.734V407.688L494.317 421.028L464.243 370.506H487.792L508.125 405.039H494.412L514.935 370.506H536.498L506.612 421.028L511.53 407.688V436.734H489.21Z" fill="white"/>
<defs>
<filter id="filter0_bd_202_289" x="-176.294" y="-177.294" width="1159.59" height="1159.59" filterUnits="userSpaceOnUse" color-interpolation-filters="sRGB">
<feFlood flood-opacity="0" result="BackgroundImageFix"/>
<feGaussianBlur in="BackgroundImageFix" stdDeviation="162.647"/>
<feComposite in2="SourceAlpha" operator="in" result="effect1_backgroundBlur_202_289"/>
<feColorMatrix in="SourceAlpha" type="matrix" values="0 0 0 0 0 0 0 0 0 0 0 0 0 0 0 0 0 0 127 0" result="hardAlpha"/>
<feOffset dy="49.4118"/>
<feGaussianBlur stdDeviation="39.1176"/>
<feComposite in2="hardAlpha" operator="out"/>
<feColorMatrix type="matrix" values="0 0 0 0 0.0867708 0 0 0 0 0.115317 0 0 0 0 0.141667 0 0 0 0.08 0"/>
<feBlend mode="normal" in2="effect1_backgroundBlur_202_289" result="effect2_dropShadow_202_289"/>
<feBlend mode="normal" in="SourceGraphic" in2="effect2_dropShadow_202_289" result="shape"/>
</filter>
<filter id="filter1_d_202_289" x="194.902" y="239.196" width="419.317" height="464.611" filterUnits="userSpaceOnUse" color-interpolation-filters="sRGB">
<feFlood flood-opacity="0" result="BackgroundImageFix"/>
<feColorMatrix in="SourceAlpha" type="matrix" values="0 0 0 0 0 0 0 0 0 0 0 0 0 0 0 0 0 0 127 0" result="hardAlpha"/>
<feOffset dy="90.5882"/>
<feGaussianBlur stdDeviation="22.6471"/>
<feComposite in2="hardAlpha" operator="out"/>
<feColorMatrix type="matrix" values="0 0 0 0 0.776471 0 0 0 0 0.290196 0 0 0 0 0.509804 0 0 0 0.15 0"/>
<feBlend mode="normal" in2="BackgroundImageFix" result="effect1_dropShadow_202_289"/>
<feBlend mode="normal" in="SourceGraphic" in2="effect1_dropShadow_202_289" result="shape"/>
</filter>
<radialGradient id="paint0_radial_202_289" cx="0" cy="0" r="1" gradientUnits="userSpaceOnUse" gradientTransform="translate(403.5 402.5) rotate(90) scale(254.5)">
<stop stop-color="white"/>
<stop offset="1" stop-color="white"/>
</radialGradient>
<linearGradient id="paint1_linear_202_289" x1="451.859" y1="567.925" x2="348.182" y2="275.54" gradientUnits="userSpaceOnUse">
<stop stop-color="#C64A82"/>
<stop offset="1" stop-color="#B20056"/>
</linearGradient>
</defs>
</svg>
