<svg width="280" height="99" viewBox="0 0 280 99" fill="none" xmlns="http://www.w3.org/2000/svg">
<rect width="280" height="99" rx="10" fill="#FE955D"/>
<path d="M39.25 38.25V61H33.7656V42.4844H25.5938V61H20.125V38.25H39.25ZM41.7812 52.7188V52.3906C41.7812 51.151 41.9583 50.0104 42.3125 48.9688C42.6667 47.9167 43.1875 47.0052 43.875 46.2344C44.5625 45.4635 45.4115 44.8646 46.4219 44.4375C47.4323 44 48.599 43.7812 49.9219 43.7812C51.2552 43.7812 52.4271 44 53.4375 44.4375C54.4583 44.8646 55.3125 45.4635 56 46.2344C56.6875 47.0052 57.2083 47.9167 57.5625 48.9688C57.9167 50.0104 58.0938 51.151 58.0938 52.3906V52.7188C58.0938 53.9479 57.9167 55.0885 57.5625 56.1406C57.2083 57.1823 56.6875 58.0938 56 58.875C55.3125 59.6458 54.4635 60.2448 53.4531 60.6719C52.4427 61.099 51.276 61.3125 49.9531 61.3125C48.6302 61.3125 47.4583 61.099 46.4375 60.6719C45.4167 60.2448 44.5625 59.6458 43.875 58.875C43.1875 58.0938 42.6667 57.1823 42.3125 56.1406C41.9583 55.0885 41.7812 53.9479 41.7812 52.7188ZM47.0469 52.3906V52.7188C47.0469 53.3542 47.0938 53.9479 47.1875 54.5C47.2812 55.0521 47.4375 55.5365 47.6562 55.9531C47.875 56.3594 48.1719 56.6771 48.5469 56.9062C48.9219 57.1354 49.3906 57.25 49.9531 57.25C50.5052 57.25 50.9635 57.1354 51.3281 56.9062C51.7031 56.6771 52 56.3594 52.2188 55.9531C52.4375 55.5365 52.5938 55.0521 52.6875 54.5C52.7812 53.9479 52.8281 53.3542 52.8281 52.7188V52.3906C52.8281 51.776 52.7812 51.1979 52.6875 50.6562C52.5938 50.1042 52.4375 49.6198 52.2188 49.2031C52 48.776 51.7031 48.4427 51.3281 48.2031C50.9531 47.9635 50.4844 47.8438 49.9219 47.8438C49.3698 47.8438 48.9062 47.9635 48.5312 48.2031C48.1667 48.4427 47.875 48.776 47.6562 49.2031C47.4375 49.6198 47.2812 50.1042 47.1875 50.6562C47.0938 51.1979 47.0469 51.776 47.0469 52.3906ZM71.9062 44.0938V48.1562H63.9062V44.0938H71.9062ZM65.6094 44.0938V61H60.3438V44.0938H65.6094ZM75.5469 44.0938V61H70.2656V44.0938H75.5469ZM83.7188 47.3438V67.5H78.4531V44.0938H83.3594L83.7188 47.3438ZM94.0938 52.3438V52.6719C94.0938 53.901 93.9531 55.0417 93.6719 56.0938C93.3906 57.1458 92.974 58.0625 92.4219 58.8438C91.8698 59.625 91.1823 60.2344 90.3594 60.6719C89.5469 61.099 88.6042 61.3125 87.5312 61.3125C86.5208 61.3125 85.651 61.0885 84.9219 60.6406C84.1927 60.1927 83.5833 59.5729 83.0938 58.7812C82.6042 57.9896 82.2083 57.0833 81.9062 56.0625C81.6042 55.0417 81.3646 53.9635 81.1875 52.8281V52.4062C81.3646 51.1875 81.6042 50.0573 81.9062 49.0156C82.2083 47.9635 82.6042 47.0469 83.0938 46.2656C83.5833 45.4844 84.1875 44.875 84.9062 44.4375C85.6354 44 86.5052 43.7812 87.5156 43.7812C88.5885 43.7812 89.5312 43.9844 90.3438 44.3906C91.1667 44.7969 91.8542 45.3802 92.4062 46.1406C92.9688 46.8906 93.3906 47.7917 93.6719 48.8438C93.9531 49.8958 94.0938 51.0625 94.0938 52.3438ZM88.8281 52.6719V52.3438C88.8281 51.6875 88.7812 51.0885 88.6875 50.5469C88.5938 49.9948 88.4427 49.5156 88.2344 49.1094C88.0365 48.7031 87.7708 48.3906 87.4375 48.1719C87.1042 47.9531 86.6927 47.8438 86.2031 47.8438C85.6406 47.8438 85.1667 47.9323 84.7812 48.1094C84.4062 48.276 84.1042 48.5365 83.875 48.8906C83.6562 49.2344 83.5 49.6667 83.4062 50.1875C83.3229 50.6979 83.2865 51.2969 83.2969 51.9844V53.2656C83.276 54.0573 83.3542 54.7552 83.5312 55.3594C83.7083 55.9531 84.0156 56.4167 84.4531 56.75C84.8906 57.0833 85.4844 57.25 86.2344 57.25C86.7344 57.25 87.151 57.1354 87.4844 56.9062C87.8177 56.6667 88.0833 56.3385 88.2812 55.9219C88.4792 55.4948 88.6198 55.0052 88.7031 54.4531C88.7865 53.901 88.8281 53.3073 88.8281 52.6719ZM95.7812 52.7188V52.3906C95.7812 51.151 95.9583 50.0104 96.3125 48.9688C96.6667 47.9167 97.1875 47.0052 97.875 46.2344C98.5625 45.4635 99.4115 44.8646 100.422 44.4375C101.432 44 102.599 43.7812 103.922 43.7812C105.255 43.7812 106.427 44 107.438 44.4375C108.458 44.8646 109.312 45.4635 110 46.2344C110.688 47.0052 111.208 47.9167 111.562 48.9688C111.917 50.0104 112.094 51.151 112.094 52.3906V52.7188C112.094 53.9479 111.917 55.0885 111.562 56.1406C111.208 57.1823 110.688 58.0938 110 58.875C109.312 59.6458 108.464 60.2448 107.453 60.6719C106.443 61.099 105.276 61.3125 103.953 61.3125C102.63 61.3125 101.458 61.099 100.438 60.6719C99.4167 60.2448 98.5625 59.6458 97.875 58.875C97.1875 58.0938 96.6667 57.1823 96.3125 56.1406C95.9583 55.0885 95.7812 53.9479 95.7812 52.7188ZM101.047 52.3906V52.7188C101.047 53.3542 101.094 53.9479 101.188 54.5C101.281 55.0521 101.438 55.5365 101.656 55.9531C101.875 56.3594 102.172 56.6771 102.547 56.9062C102.922 57.1354 103.391 57.25 103.953 57.25C104.505 57.25 104.964 57.1354 105.328 56.9062C105.703 56.6771 106 56.3594 106.219 55.9531C106.438 55.5365 106.594 55.0521 106.688 54.5C106.781 53.9479 106.828 53.3542 106.828 52.7188V52.3906C106.828 51.776 106.781 51.1979 106.688 50.6562C106.594 50.1042 106.438 49.6198 106.219 49.2031C106 48.776 105.703 48.4427 105.328 48.2031C104.953 47.9635 104.484 47.8438 103.922 47.8438C103.37 47.8438 102.906 47.9635 102.531 48.2031C102.167 48.4427 101.875 48.776 101.656 49.2031C101.438 49.6198 101.281 50.1042 101.188 50.6562C101.094 51.1979 101.047 51.776 101.047 52.3906ZM124.625 36.625H128.859C128.859 37.375 128.781 38.0521 128.625 38.6562C128.469 39.25 128.177 39.7865 127.75 40.2656C127.323 40.7344 126.698 41.1458 125.875 41.5C125.062 41.8438 123.99 42.1354 122.656 42.375C121.802 42.5417 121.083 42.8281 120.5 43.2344C119.917 43.6406 119.448 44.1927 119.094 44.8906C118.75 45.5781 118.505 46.4323 118.359 47.4531C118.224 48.474 118.172 49.6823 118.203 51.0781V51.5L114.172 52.2188V51.7969C114.182 49.7031 114.365 47.8854 114.719 46.3438C115.073 44.7917 115.578 43.4844 116.234 42.4219C116.901 41.3594 117.703 40.5104 118.641 39.875C119.578 39.2396 120.63 38.7917 121.797 38.5312C122.536 38.3646 123.109 38.2031 123.516 38.0469C123.932 37.8906 124.219 37.7031 124.375 37.4844C124.542 37.2656 124.625 36.9792 124.625 36.625ZM123.328 45.0312C124.495 45.0312 125.526 45.2292 126.422 45.625C127.318 46.0208 128.068 46.5781 128.672 47.2969C129.276 48.0156 129.734 48.8646 130.047 49.8438C130.359 50.8125 130.516 51.8698 130.516 53.0156V53.3438C130.516 54.4896 130.339 55.5521 129.984 56.5312C129.63 57.5 129.109 58.3438 128.422 59.0625C127.734 59.7812 126.88 60.3385 125.859 60.7344C124.849 61.1302 123.682 61.3281 122.359 61.3281C121.036 61.3281 119.865 61.1094 118.844 60.6719C117.823 60.224 116.964 59.599 116.266 58.7969C115.578 57.9948 115.057 57.0521 114.703 55.9688C114.349 54.8854 114.172 53.6979 114.172 52.4062V52.0781C114.161 51.9323 114.25 51.7969 114.438 51.6719C114.635 51.5365 114.865 51.3698 115.125 51.1719C115.396 50.9635 115.635 50.6823 115.844 50.3281C116.583 49.0677 117.339 48.0521 118.109 47.2812C118.88 46.5 119.693 45.9323 120.547 45.5781C121.401 45.2135 122.328 45.0312 123.328 45.0312ZM122.328 49.0938C121.589 49.0938 121.005 49.276 120.578 49.6406C120.161 49.9948 119.865 50.4688 119.688 51.0625C119.521 51.6562 119.438 52.3073 119.438 53.0156V53.3438C119.438 53.8958 119.484 54.4115 119.578 54.8906C119.672 55.3594 119.828 55.776 120.047 56.1406C120.266 56.4948 120.562 56.7708 120.938 56.9688C121.323 57.1667 121.797 57.2656 122.359 57.2656C122.911 57.2656 123.375 57.1667 123.75 56.9688C124.125 56.7708 124.422 56.4948 124.641 56.1406C124.859 55.776 125.016 55.3594 125.109 54.8906C125.203 54.4115 125.25 53.8958 125.25 53.3438V53.0156C125.25 52.4844 125.203 51.9844 125.109 51.5156C125.016 51.0365 124.859 50.6198 124.641 50.2656C124.422 49.901 124.12 49.6146 123.734 49.4062C123.359 49.1979 122.891 49.0938 122.328 49.0938ZM138.125 59.0156L142.5 44.0938H148.156L141.359 63.5156C141.214 63.9427 141.021 64.401 140.781 64.8906C140.542 65.3906 140.214 65.8646 139.797 66.3125C139.38 66.7604 138.844 67.125 138.188 67.4062C137.542 67.6875 136.74 67.8281 135.781 67.8281C135.271 67.8281 134.896 67.8021 134.656 67.75C134.427 67.7083 134.073 67.6302 133.594 67.5156V63.75C133.729 63.75 133.844 63.75 133.938 63.75C134.042 63.75 134.156 63.75 134.281 63.75C134.844 63.75 135.292 63.6927 135.625 63.5781C135.969 63.4635 136.229 63.2969 136.406 63.0781C136.594 62.8594 136.74 62.5938 136.844 62.2812L138.125 59.0156ZM137.016 44.0938L140.344 55.9219L140.922 61.5H137.391L131.375 44.0938H137.016ZM154.719 53.9062L159.375 44.0938H164.641V61H159.375V51.1562L154.719 61H149.438V44.0938H154.719V53.9062ZM159.344 36.9688H162.953C162.953 37.9062 162.714 38.7396 162.234 39.4688C161.766 40.1875 161.099 40.75 160.234 41.1562C159.37 41.5625 158.349 41.7656 157.172 41.7656C155.391 41.7656 153.979 41.3229 152.938 40.4375C151.896 39.5417 151.375 38.3854 151.375 36.9688H154.969C154.969 37.4792 155.135 37.9375 155.469 38.3438C155.802 38.75 156.37 38.9531 157.172 38.9531C157.974 38.9531 158.536 38.75 158.859 38.3438C159.182 37.9375 159.344 37.4792 159.344 36.9688ZM182.609 57.25C183.099 57.25 183.516 57.1615 183.859 56.9844C184.214 56.7969 184.479 56.5365 184.656 56.2031C184.844 55.8594 184.932 55.4479 184.922 54.9688H189.875C189.885 56.2396 189.573 57.3542 188.938 58.3125C188.312 59.2604 187.458 60 186.375 60.5312C185.302 61.0521 184.089 61.3125 182.734 61.3125C181.411 61.3125 180.255 61.099 179.266 60.6719C178.276 60.2344 177.448 59.6302 176.781 58.8594C176.125 58.0781 175.63 57.1667 175.297 56.125C174.974 55.0833 174.812 53.9531 174.812 52.7344V52.375C174.812 51.1562 174.974 50.026 175.297 48.9844C175.63 47.9323 176.125 47.0208 176.781 46.25C177.448 45.4688 178.271 44.8646 179.25 44.4375C180.24 44 181.391 43.7812 182.703 43.7812C184.109 43.7812 185.349 44.0469 186.422 44.5781C187.505 45.1094 188.354 45.8802 188.969 46.8906C189.583 47.901 189.885 49.125 189.875 50.5625H184.922C184.932 50.0521 184.854 49.5938 184.688 49.1875C184.521 48.7812 184.26 48.4583 183.906 48.2188C183.562 47.9688 183.12 47.8438 182.578 47.8438C182.036 47.8438 181.599 47.9635 181.266 48.2031C180.932 48.4427 180.677 48.776 180.5 49.2031C180.333 49.6198 180.219 50.099 180.156 50.6406C180.104 51.1823 180.078 51.7604 180.078 52.375V52.7344C180.078 53.3594 180.104 53.9479 180.156 54.5C180.219 55.0417 180.339 55.5208 180.516 55.9375C180.693 56.3438 180.948 56.6667 181.281 56.9062C181.615 57.1354 182.057 57.25 182.609 57.25ZM203.812 50.6875V54.7344H195.375V50.6875H203.812ZM197.297 44.0938V61H192.031V44.0938H197.297ZM207.188 44.0938V61H201.906V44.0938H207.188ZM209.438 52.7188V52.3906C209.438 51.151 209.615 50.0104 209.969 48.9688C210.323 47.9167 210.844 47.0052 211.531 46.2344C212.219 45.4635 213.068 44.8646 214.078 44.4375C215.089 44 216.255 43.7812 217.578 43.7812C218.911 43.7812 220.083 44 221.094 44.4375C222.115 44.8646 222.969 45.4635 223.656 46.2344C224.344 47.0052 224.865 47.9167 225.219 48.9688C225.573 50.0104 225.75 51.151 225.75 52.3906V52.7188C225.75 53.9479 225.573 55.0885 225.219 56.1406C224.865 57.1823 224.344 58.0938 223.656 58.875C222.969 59.6458 222.12 60.2448 221.109 60.6719C220.099 61.099 218.932 61.3125 217.609 61.3125C216.286 61.3125 215.115 61.099 214.094 60.6719C213.073 60.2448 212.219 59.6458 211.531 58.875C210.844 58.0938 210.323 57.1823 209.969 56.1406C209.615 55.0885 209.438 53.9479 209.438 52.7188ZM214.703 52.3906V52.7188C214.703 53.3542 214.75 53.9479 214.844 54.5C214.938 55.0521 215.094 55.5365 215.312 55.9531C215.531 56.3594 215.828 56.6771 216.203 56.9062C216.578 57.1354 217.047 57.25 217.609 57.25C218.161 57.25 218.62 57.1354 218.984 56.9062C219.359 56.6771 219.656 56.3594 219.875 55.9531C220.094 55.5365 220.25 55.0521 220.344 54.5C220.438 53.9479 220.484 53.3542 220.484 52.7188V52.3906C220.484 51.776 220.438 51.1979 220.344 50.6562C220.25 50.1042 220.094 49.6198 219.875 49.2031C219.656 48.776 219.359 48.4427 218.984 48.2031C218.609 47.9635 218.141 47.8438 217.578 47.8438C217.026 47.8438 216.562 47.9635 216.188 48.2031C215.823 48.4427 215.531 48.776 215.312 49.2031C215.094 49.6198 214.938 50.1042 214.844 50.6562C214.75 51.1979 214.703 51.776 214.703 52.3906ZM236.797 54.1094H231.609L231.578 50.8594H235.891C236.318 50.8594 236.656 50.8125 236.906 50.7188C237.167 50.625 237.349 50.4844 237.453 50.2969C237.568 50.099 237.625 49.8646 237.625 49.5938C237.625 49.3229 237.583 49.0938 237.5 48.9062C237.427 48.7188 237.307 48.5677 237.141 48.4531C236.984 48.3385 236.786 48.2552 236.547 48.2031C236.307 48.151 236.026 48.125 235.703 48.125H233.719V61H228.453V44.0938H235.703C236.818 44.0938 237.818 44.1927 238.703 44.3906C239.589 44.5781 240.339 44.8698 240.953 45.2656C241.578 45.651 242.057 46.1406 242.391 46.7344C242.724 47.3281 242.891 48.026 242.891 48.8281C242.891 49.349 242.766 49.8385 242.516 50.2969C242.266 50.7552 241.896 51.1615 241.406 51.5156C240.927 51.8698 240.333 52.1615 239.625 52.3906C238.917 52.6094 238.104 52.7448 237.188 52.7969L236.797 54.1094ZM236.797 61H230.469L232.078 56.9688H236.797C237.234 56.9688 237.589 56.9167 237.859 56.8125C238.13 56.7083 238.328 56.5521 238.453 56.3438C238.578 56.1354 238.641 55.8802 238.641 55.5781C238.641 55.2865 238.589 55.0312 238.484 54.8125C238.38 54.5938 238.193 54.4219 237.922 54.2969C237.661 54.1719 237.286 54.1094 236.797 54.1094H232.672L232.703 50.8594H237.156L238.281 52.1875C239.594 52.2604 240.661 52.4844 241.484 52.8594C242.318 53.2344 242.927 53.7083 243.312 54.2812C243.708 54.8542 243.906 55.4844 243.906 56.1719C243.906 56.974 243.75 57.6771 243.438 58.2812C243.135 58.8854 242.682 59.3906 242.078 59.7969C241.474 60.1927 240.729 60.4948 239.844 60.7031C238.969 60.901 237.953 61 236.797 61ZM254.844 56.75V49.7812C254.844 49.3021 254.776 48.8906 254.641 48.5469C254.505 48.2031 254.292 47.9375 254 47.75C253.708 47.5521 253.318 47.4531 252.828 47.4531C252.432 47.4531 252.094 47.5208 251.812 47.6562C251.531 47.7917 251.318 47.9948 251.172 48.2656C251.026 48.5365 250.953 48.8802 250.953 49.2969H245.688C245.688 48.5156 245.859 47.7917 246.203 47.125C246.557 46.4479 247.057 45.8594 247.703 45.3594C248.359 44.8594 249.141 44.474 250.047 44.2031C250.964 43.9219 251.984 43.7812 253.109 43.7812C254.453 43.7812 255.651 44.0052 256.703 44.4531C257.766 44.901 258.604 45.5729 259.219 46.4688C259.833 47.3542 260.141 48.4688 260.141 49.8125V56.7344C260.141 57.8385 260.203 58.6771 260.328 59.25C260.453 59.8125 260.63 60.3073 260.859 60.7344V61H255.578C255.328 60.4792 255.141 59.8438 255.016 59.0938C254.901 58.3333 254.844 57.5521 254.844 56.75ZM255.484 50.6719L255.516 53.4844H253.188C252.698 53.4844 252.281 53.5521 251.938 53.6875C251.604 53.8229 251.333 54.0104 251.125 54.25C250.927 54.4792 250.781 54.7396 250.688 55.0312C250.604 55.3229 250.562 55.6302 250.562 55.9531C250.562 56.2656 250.635 56.5469 250.781 56.7969C250.938 57.0365 251.146 57.224 251.406 57.3594C251.667 57.4948 251.958 57.5625 252.281 57.5625C252.865 57.5625 253.359 57.4531 253.766 57.2344C254.182 57.0052 254.5 56.7292 254.719 56.4062C254.938 56.0833 255.047 55.7812 255.047 55.5L256.203 57.6562C255.995 58.0729 255.755 58.4948 255.484 58.9219C255.224 59.349 254.896 59.7448 254.5 60.1094C254.115 60.4635 253.641 60.7552 253.078 60.9844C252.516 61.2031 251.833 61.3125 251.031 61.3125C249.99 61.3125 249.031 61.099 248.156 60.6719C247.292 60.2448 246.599 59.651 246.078 58.8906C245.557 58.1198 245.297 57.2344 245.297 56.2344C245.297 55.3594 245.453 54.5781 245.766 53.8906C246.089 53.2031 246.573 52.6198 247.219 52.1406C247.865 51.6615 248.688 51.2969 249.688 51.0469C250.688 50.7969 251.865 50.6719 253.219 50.6719H255.484Z" fill="white"/>
</svg>
