<svg width="127" height="45" viewBox="0 0 127 45" fill="none" xmlns="http://www.w3.org/2000/svg">
<rect width="127" height="45" rx="20" fill="#3DA942"/>
<path d="M37.0996 14.6299H39.4922C39.4603 15.3226 39.2734 15.9333 38.9316 16.4619C38.5898 16.9906 38.1159 17.403 37.5098 17.6992C36.9082 17.9909 36.1973 18.1367 35.377 18.1367C34.7116 18.1367 34.1169 18.0251 33.5928 17.8018C33.0732 17.5785 32.6312 17.2572 32.2666 16.8379C31.9066 16.4186 31.6309 15.9105 31.4395 15.3135C31.2526 14.7165 31.1592 14.0443 31.1592 13.2969V12.7568C31.1592 12.0094 31.2572 11.3372 31.4531 10.7402C31.6536 10.1387 31.9362 9.62826 32.3008 9.20898C32.6699 8.78516 33.112 8.46159 33.627 8.23828C34.1419 8.01497 34.7139 7.90332 35.3428 7.90332C36.2087 7.90332 36.9401 8.05827 37.5371 8.36816C38.1341 8.67806 38.5967 9.10417 38.9248 9.64648C39.2529 10.1842 39.4466 10.7972 39.5059 11.4854H37.1133C37.1042 11.1117 37.0404 10.7995 36.9219 10.5488C36.8034 10.2936 36.6165 10.1022 36.3613 9.97461C36.1061 9.84701 35.7666 9.7832 35.3428 9.7832C35.0465 9.7832 34.7891 9.83789 34.5703 9.94727C34.3516 10.0566 34.1693 10.2298 34.0234 10.4668C33.8776 10.7038 33.7682 11.0114 33.6953 11.3896C33.627 11.7633 33.5928 12.2145 33.5928 12.7432V13.2969C33.5928 13.8255 33.6247 14.2767 33.6885 14.6504C33.7523 15.0241 33.8548 15.3294 33.9961 15.5664C34.1374 15.8034 34.3197 15.9788 34.543 16.0928C34.7708 16.2021 35.0488 16.2568 35.377 16.2568C35.7415 16.2568 36.0492 16.1999 36.2998 16.0859C36.5505 15.9674 36.7441 15.7897 36.8809 15.5527C37.0176 15.3112 37.0905 15.0036 37.0996 14.6299ZM45.1523 15.457L46.8271 10.6035H48.6113L45.9248 18H44.3867L41.707 10.6035H43.498L45.1523 15.457ZM42.9785 10.6035V18H40.6748V10.6035H42.9785ZM47.415 18V10.6035H49.7188V18H47.415ZM50.9766 14.377V14.2334C50.9766 13.6911 51.054 13.1921 51.209 12.7363C51.3639 12.276 51.5918 11.8773 51.8926 11.54C52.1934 11.2028 52.5648 10.9408 53.0068 10.7539C53.4489 10.5625 53.9593 10.4668 54.5381 10.4668C55.1214 10.4668 55.6341 10.5625 56.0762 10.7539C56.5228 10.9408 56.8965 11.2028 57.1973 11.54C57.498 11.8773 57.7259 12.276 57.8809 12.7363C58.0358 13.1921 58.1133 13.6911 58.1133 14.2334V14.377C58.1133 14.9147 58.0358 15.4137 57.8809 15.874C57.7259 16.3298 57.498 16.7285 57.1973 17.0703C56.8965 17.4076 56.5251 17.6696 56.083 17.8564C55.641 18.0433 55.1305 18.1367 54.5518 18.1367C53.973 18.1367 53.4603 18.0433 53.0137 17.8564C52.5671 17.6696 52.1934 17.4076 51.8926 17.0703C51.5918 16.7285 51.3639 16.3298 51.209 15.874C51.054 15.4137 50.9766 14.9147 50.9766 14.377ZM53.2803 14.2334V14.377C53.2803 14.6549 53.3008 14.9147 53.3418 15.1562C53.3828 15.3978 53.4512 15.6097 53.5469 15.792C53.6426 15.9697 53.7725 16.1087 53.9365 16.209C54.1006 16.3092 54.3057 16.3594 54.5518 16.3594C54.7933 16.3594 54.9938 16.3092 55.1533 16.209C55.3174 16.1087 55.4473 15.9697 55.543 15.792C55.6387 15.6097 55.707 15.3978 55.748 15.1562C55.7891 14.9147 55.8096 14.6549 55.8096 14.377V14.2334C55.8096 13.9645 55.7891 13.7116 55.748 13.4746C55.707 13.2331 55.6387 13.0212 55.543 12.8389C55.4473 12.652 55.3174 12.5062 55.1533 12.4014C54.9893 12.2965 54.7842 12.2441 54.5381 12.2441C54.2965 12.2441 54.0938 12.2965 53.9297 12.4014C53.7702 12.5062 53.6426 12.652 53.5469 12.8389C53.4512 13.0212 53.3828 13.2331 53.3418 13.4746C53.3008 13.7116 53.2803 13.9645 53.2803 14.2334ZM63.0762 10.6035V18H60.7656V10.6035H63.0762ZM65.4141 10.6035V12.3672H58.4688V10.6035H65.4141ZM68.5996 12.0254V20.8438H66.2959V10.6035H68.4424L68.5996 12.0254ZM73.1387 14.2129V14.3564C73.1387 14.8942 73.0771 15.3932 72.9541 15.8535C72.8311 16.3138 72.6488 16.7148 72.4072 17.0566C72.1657 17.3984 71.8649 17.665 71.5049 17.8564C71.1494 18.0433 70.737 18.1367 70.2676 18.1367C69.8255 18.1367 69.445 18.0387 69.126 17.8428C68.807 17.6468 68.5404 17.3757 68.3262 17.0293C68.112 16.6829 67.9388 16.2865 67.8066 15.8398C67.6745 15.3932 67.5697 14.9215 67.4922 14.4248V14.2402C67.5697 13.707 67.6745 13.2126 67.8066 12.7568C67.9388 12.2965 68.112 11.8955 68.3262 11.5537C68.5404 11.2119 68.8047 10.9453 69.1191 10.7539C69.4382 10.5625 69.8187 10.4668 70.2607 10.4668C70.7301 10.4668 71.1426 10.5557 71.498 10.7334C71.8581 10.9111 72.1589 11.1663 72.4004 11.499C72.6465 11.8271 72.8311 12.2214 72.9541 12.6816C73.0771 13.1419 73.1387 13.6523 73.1387 14.2129ZM70.835 14.3564V14.2129C70.835 13.9258 70.8145 13.6637 70.7734 13.4268C70.7324 13.1852 70.6663 12.9756 70.5752 12.7979C70.4886 12.6201 70.3724 12.4834 70.2266 12.3877C70.0807 12.292 69.9007 12.2441 69.6865 12.2441C69.4404 12.2441 69.2331 12.2829 69.0645 12.3604C68.9004 12.4333 68.7682 12.5472 68.668 12.7021C68.5723 12.8525 68.5039 13.0417 68.4629 13.2695C68.4264 13.4928 68.4105 13.7549 68.415 14.0557V14.6162C68.4059 14.9626 68.4401 15.2679 68.5176 15.5322C68.5951 15.792 68.7295 15.9948 68.9209 16.1406C69.1123 16.2865 69.3721 16.3594 69.7002 16.3594C69.9189 16.3594 70.1012 16.3092 70.2471 16.209C70.3929 16.1042 70.5091 15.9606 70.5957 15.7783C70.6823 15.5915 70.7438 15.3773 70.7803 15.1357C70.8167 14.8942 70.835 14.6344 70.835 14.3564ZM77.7461 18.1367C77.1445 18.1367 76.6068 18.0433 76.1328 17.8564C75.6589 17.665 75.2578 17.403 74.9297 17.0703C74.6061 16.7376 74.3577 16.3548 74.1846 15.9219C74.016 15.4889 73.9316 15.0309 73.9316 14.5479V14.2881C73.9316 13.7458 74.0068 13.2445 74.1572 12.7842C74.3076 12.3193 74.5309 11.9137 74.8271 11.5674C75.1234 11.221 75.4948 10.9521 75.9414 10.7607C76.388 10.5648 76.9076 10.4668 77.5 10.4668C78.0241 10.4668 78.4935 10.5511 78.9082 10.7197C79.3229 10.8883 79.6738 11.1299 79.9609 11.4443C80.2526 11.7588 80.4736 12.1393 80.624 12.5859C80.779 13.0326 80.8564 13.5339 80.8564 14.0898V15.0264H74.8135V13.584H78.6074V13.4062C78.612 13.1602 78.5687 12.9505 78.4775 12.7773C78.391 12.6042 78.2633 12.472 78.0947 12.3809C77.9261 12.2897 77.721 12.2441 77.4795 12.2441C77.2288 12.2441 77.0215 12.2988 76.8574 12.4082C76.6979 12.5176 76.5726 12.668 76.4814 12.8594C76.3949 13.0462 76.3333 13.2627 76.2969 13.5088C76.2604 13.7549 76.2422 14.0146 76.2422 14.2881V14.5479C76.2422 14.8213 76.2786 15.0697 76.3516 15.293C76.429 15.5163 76.5384 15.7077 76.6797 15.8672C76.8255 16.0221 76.9987 16.1429 77.1992 16.2295C77.4043 16.3161 77.6367 16.3594 77.8965 16.3594C78.2109 16.3594 78.5208 16.3001 78.8262 16.1816C79.1315 16.0632 79.3936 15.8672 79.6123 15.5938L80.6582 16.8379C80.5078 17.0521 80.2936 17.2594 80.0156 17.46C79.7422 17.6605 79.4141 17.8245 79.0312 17.9521C78.6484 18.0752 78.2201 18.1367 77.7461 18.1367ZM85.8535 10.6035V18H83.543V10.6035H85.8535ZM88.1914 10.6035V12.3672H81.2461V10.6035H88.1914ZM90.5908 12.6338H92.6963C93.4072 12.6338 94.0156 12.7477 94.5215 12.9756C95.0319 13.1989 95.4238 13.5156 95.6973 13.9258C95.9707 14.3314 96.1074 14.8053 96.1074 15.3477C96.1074 15.735 96.0299 16.0928 95.875 16.4209C95.7201 16.7445 95.4945 17.0247 95.1982 17.2617C94.9066 17.4941 94.5488 17.6764 94.125 17.8086C93.7057 17.9362 93.2295 18 92.6963 18H89.21V10.6035H91.5205V16.2363H92.6963C92.9606 16.2363 93.1725 16.1953 93.332 16.1133C93.4961 16.0312 93.6169 15.9219 93.6943 15.7852C93.7718 15.6484 93.8105 15.498 93.8105 15.334C93.8105 15.1517 93.7718 14.9922 93.6943 14.8555C93.6169 14.7142 93.4961 14.6048 93.332 14.5273C93.1725 14.4453 92.9606 14.4043 92.6963 14.4043H90.5908V12.6338ZM42.9854 28.0254V36.8438H40.6816V26.6035H42.8281L42.9854 28.0254ZM47.5244 30.2129V30.3564C47.5244 30.8942 47.4629 31.3932 47.3398 31.8535C47.2168 32.3138 47.0345 32.7148 46.793 33.0566C46.5514 33.3984 46.2507 33.665 45.8906 33.8564C45.5352 34.0433 45.1227 34.1367 44.6533 34.1367C44.2113 34.1367 43.8307 34.0387 43.5117 33.8428C43.1927 33.6468 42.9261 33.3757 42.7119 33.0293C42.4977 32.6829 42.3245 32.2865 42.1924 31.8398C42.0602 31.3932 41.9554 30.9215 41.8779 30.4248V30.2402C41.9554 29.707 42.0602 29.2126 42.1924 28.7568C42.3245 28.2965 42.4977 27.8955 42.7119 27.5537C42.9261 27.2119 43.1904 26.9453 43.5049 26.7539C43.8239 26.5625 44.2044 26.4668 44.6465 26.4668C45.1159 26.4668 45.5283 26.5557 45.8838 26.7334C46.2438 26.9111 46.5446 27.1663 46.7861 27.499C47.0322 27.8271 47.2168 28.2214 47.3398 28.6816C47.4629 29.1419 47.5244 29.6523 47.5244 30.2129ZM45.2207 30.3564V30.2129C45.2207 29.9258 45.2002 29.6637 45.1592 29.4268C45.1182 29.1852 45.0521 28.9756 44.9609 28.7979C44.8743 28.6201 44.7581 28.4834 44.6123 28.3877C44.4665 28.292 44.2865 28.2441 44.0723 28.2441C43.8262 28.2441 43.6188 28.2829 43.4502 28.3604C43.2861 28.4333 43.154 28.5472 43.0537 28.7021C42.958 28.8525 42.8896 29.0417 42.8486 29.2695C42.8122 29.4928 42.7962 29.7549 42.8008 30.0557V30.6162C42.7917 30.9626 42.8258 31.2679 42.9033 31.5322C42.9808 31.792 43.1152 31.9948 43.3066 32.1406C43.498 32.2865 43.7578 32.3594 44.0859 32.3594C44.3047 32.3594 44.487 32.3092 44.6328 32.209C44.7786 32.1042 44.8949 31.9606 44.9814 31.7783C45.068 31.5915 45.1296 31.3773 45.166 31.1357C45.2025 30.8942 45.2207 30.6344 45.2207 30.3564ZM52.1318 34.1367C51.5303 34.1367 50.9925 34.0433 50.5186 33.8564C50.0446 33.665 49.6436 33.403 49.3154 33.0703C48.9919 32.7376 48.7435 32.3548 48.5703 31.9219C48.4017 31.4889 48.3174 31.0309 48.3174 30.5479V30.2881C48.3174 29.7458 48.3926 29.2445 48.543 28.7842C48.6934 28.3193 48.9167 27.9137 49.2129 27.5674C49.5091 27.221 49.8805 26.9521 50.3271 26.7607C50.7738 26.5648 51.2933 26.4668 51.8857 26.4668C52.4098 26.4668 52.8792 26.5511 53.2939 26.7197C53.7087 26.8883 54.0596 27.1299 54.3467 27.4443C54.6383 27.7588 54.8594 28.1393 55.0098 28.5859C55.1647 29.0326 55.2422 29.5339 55.2422 30.0898V31.0264H49.1992V29.584H52.9932V29.4062C52.9977 29.1602 52.9544 28.9505 52.8633 28.7773C52.7767 28.6042 52.6491 28.472 52.4805 28.3809C52.3118 28.2897 52.1068 28.2441 51.8652 28.2441C51.6146 28.2441 51.4072 28.2988 51.2432 28.4082C51.0837 28.5176 50.9583 28.668 50.8672 28.8594C50.7806 29.0462 50.7191 29.2627 50.6826 29.5088C50.6462 29.7549 50.6279 30.0146 50.6279 30.2881V30.5479C50.6279 30.8213 50.6644 31.0697 50.7373 31.293C50.8148 31.5163 50.9242 31.7077 51.0654 31.8672C51.2113 32.0221 51.3844 32.1429 51.585 32.2295C51.79 32.3161 52.0225 32.3594 52.2822 32.3594C52.5967 32.3594 52.9066 32.3001 53.2119 32.1816C53.5173 32.0632 53.7793 31.8672 53.998 31.5938L55.0439 32.8379C54.8936 33.0521 54.6794 33.2594 54.4014 33.46C54.1279 33.6605 53.7998 33.8245 53.417 33.9521C53.0342 34.0752 52.6058 34.1367 52.1318 34.1367ZM56.1377 34V26.6035H58.4414V32.2227H60.4785V26.6035H62.7891V34H56.1377ZM64.0059 32.2363L63.8691 36.1943H61.7021V34H60.9365V32.2363H64.0059ZM68.3877 34.1367C67.7861 34.1367 67.2484 34.0433 66.7744 33.8564C66.3005 33.665 65.8994 33.403 65.5713 33.0703C65.2477 32.7376 64.9993 32.3548 64.8262 31.9219C64.6576 31.4889 64.5732 31.0309 64.5732 30.5479V30.2881C64.5732 29.7458 64.6484 29.2445 64.7988 28.7842C64.9492 28.3193 65.1725 27.9137 65.4688 27.5674C65.765 27.221 66.1364 26.9521 66.583 26.7607C67.0296 26.5648 67.5492 26.4668 68.1416 26.4668C68.6657 26.4668 69.1351 26.5511 69.5498 26.7197C69.9645 26.8883 70.3154 27.1299 70.6025 27.4443C70.8942 27.7588 71.1152 28.1393 71.2656 28.5859C71.4206 29.0326 71.498 29.5339 71.498 30.0898V31.0264H65.4551V29.584H69.249V29.4062C69.2536 29.1602 69.2103 28.9505 69.1191 28.7773C69.0326 28.6042 68.9049 28.472 68.7363 28.3809C68.5677 28.2897 68.3626 28.2441 68.1211 28.2441C67.8704 28.2441 67.6631 28.2988 67.499 28.4082C67.3395 28.5176 67.2142 28.668 67.123 28.8594C67.0365 29.0462 66.9749 29.2627 66.9385 29.5088C66.902 29.7549 66.8838 30.0146 66.8838 30.2881V30.5479C66.8838 30.8213 66.9202 31.0697 66.9932 31.293C67.0706 31.5163 67.18 31.7077 67.3213 31.8672C67.4671 32.0221 67.6403 32.1429 67.8408 32.2295C68.0459 32.3161 68.2783 32.3594 68.5381 32.3594C68.8525 32.3594 69.1624 32.3001 69.4678 32.1816C69.7731 32.0632 70.0352 31.8672 70.2539 31.5938L71.2998 32.8379C71.1494 33.0521 70.9352 33.2594 70.6572 33.46C70.3838 33.6605 70.0557 33.8245 69.6729 33.9521C69.29 34.0752 68.8617 34.1367 68.3877 34.1367ZM77.4521 26.6035V28.3809H73.9521V26.6035H77.4521ZM74.6973 26.6035V34H72.3936V26.6035H74.6973ZM79.0449 26.6035V34H76.7344V26.6035H79.0449ZM84.4385 26.6035V34H82.1279V26.6035H84.4385ZM86.7764 26.6035V28.3672H79.8311V26.6035H86.7764Z" fill="white"/>
</svg>
